<svg xmlns="http://www.w3.org/2000/svg" xmlns:xlink="http://www.w3.org/1999/xlink" width="700" zoomAndPan="magnify" viewBox="0 0 525 225" height="300" preserveAspectRatio="xMidYMid meet" version="1.0"><defs><g/><clipPath id="5fff471eeb"><path d="M 451 4 L 504 4 L 504 58 L 451 58 Z M 451 4 " clip-rule="nonzero"/></clipPath><clipPath id="5ecbcc825b"><path d="M 440.710938 12.921875 L 477.613281 -21.1875 L 529.027344 34.441406 L 492.125 68.550781 Z M 440.710938 12.921875 " clip-rule="nonzero"/></clipPath><clipPath id="8c1c8a74e7"><path d="M 440.710938 12.921875 L 477.613281 -21.1875 L 529.027344 34.441406 L 492.125 68.550781 Z M 440.710938 12.921875 " clip-rule="nonzero"/></clipPath><clipPath id="c91489c949"><path d="M 428 26 L 481 26 L 481 79 L 428 79 Z M 428 26 " clip-rule="nonzero"/></clipPath><clipPath id="219733d6fd"><path d="M 417.738281 34.378906 L 454.640625 0.269531 L 506.054688 55.898438 L 469.152344 90.003906 Z M 417.738281 34.378906 " clip-rule="nonzero"/></clipPath><clipPath id="2fb487076d"><path d="M 417.738281 34.378906 L 454.640625 0.269531 L 506.054688 55.898438 L 469.152344 90.003906 Z M 417.738281 34.378906 " clip-rule="nonzero"/></clipPath><clipPath id="549452a219"><path d="M 329 32.761719 L 426 32.761719 L 426 87 L 329 87 Z M 329 32.761719 " clip-rule="nonzero"/></clipPath><clipPath id="eea19bc2f9"><path d="M 343 75 L 354 75 L 354 146.761719 L 343 146.761719 Z M 343 75 " clip-rule="nonzero"/></clipPath><clipPath id="d8d35ded35"><path d="M 402 75 L 413 75 L 413 146.761719 L 402 146.761719 Z M 402 75 " clip-rule="nonzero"/></clipPath></defs><g clip-path="url(#5fff471eeb)"><g clip-path="url(#5ecbcc825b)"><g clip-path="url(#8c1c8a74e7)"><path fill="#18cb96" d="M 503.792969 6.761719 L 458.679688 4.753906 C 449.964844 4.367188 448.496094 21.339844 458.820312 21.621094 L 486.890625 22.382812 L 484.746094 50.628906 C 484.09375 59.230469 500.867188 60.136719 501.347656 51.394531 Z M 503.792969 6.761719 " fill-opacity="1" fill-rule="nonzero"/></g></g></g><g clip-path="url(#c91489c949)"><g clip-path="url(#219733d6fd)"><g clip-path="url(#2fb487076d)"><path fill="#18cb96" d="M 480.820312 28.214844 L 435.707031 26.210938 C 426.992188 25.824219 425.523438 42.796875 435.847656 43.078125 L 463.917969 43.839844 L 461.773438 72.085938 C 461.121094 80.6875 477.894531 81.59375 478.375 72.851562 Z M 480.820312 28.214844 " fill-opacity="1" fill-rule="nonzero"/></g></g></g><g clip-path="url(#549452a219)"><path stroke-linecap="round" transform="matrix(2.576538, 0, 0, 2.576538, 300.131179, 12.665607)" fill="none" stroke-linejoin="round" d="M 13.358858 26.28528 L 13.358858 22.485971 C 15.89072 16.156317 20.323752 9.910047 30.386007 9.581057 C 40.448262 10.043463 44.537143 15.839455 47.069005 22.328298 L 47.069005 26.759815 " stroke="#333333" stroke-width="3.553" stroke-opacity="1" stroke-miterlimit="4"/></g><path stroke-linecap="round" transform="matrix(2.576538, 0, 0, 2.576538, 300.131179, 12.665607)" fill-opacity="1" fill="#373643" fill-rule="evenodd" stroke-linejoin="round" d="M 13.307311 26.283764 C 7.849405 27.401118 3.743848 32.232881 3.743848 38.019777 C 3.743848 43.824866 7.878211 48.658144 13.363406 49.75579 L 13.363406 26.283764 C 13.345213 26.286796 13.325504 26.280732 13.307311 26.283764 Z M 13.307311 26.283764 " stroke="#333333" stroke-width="3.553" stroke-opacity="1" stroke-miterlimit="4"/><path stroke-linecap="round" transform="matrix(2.576538, 0, 0, 2.576538, 300.131179, 12.665607)" fill-opacity="1" fill="#373643" fill-rule="evenodd" stroke-linejoin="round" d="M 47.161486 26.283764 C 52.619392 27.401118 56.726466 32.232881 56.726466 38.019777 C 56.726466 43.824866 52.590586 48.658144 47.106907 49.75579 L 47.106907 26.283764 C 47.1251 26.286796 47.144809 26.280732 47.161486 26.283764 Z M 47.161486 26.283764 " stroke="#333333" stroke-width="3.553" stroke-opacity="1" stroke-miterlimit="4"/><g clip-path="url(#eea19bc2f9)"><path stroke-linecap="round" transform="matrix(2.576538, 0, 0, 2.576538, 300.131179, 12.665607)" fill="none" stroke-linejoin="round" d="M 18.672735 26.077576 L 18.672735 50.213647 " stroke="#333333" stroke-width="3.724" stroke-opacity="1" stroke-miterlimit="4"/></g><g clip-path="url(#d8d35ded35)"><path stroke-linecap="round" transform="matrix(2.576538, 0, 0, 2.576538, 300.131179, 12.665607)" fill="none" stroke-linejoin="round" d="M 41.694484 26.077576 L 41.694484 50.213647 " stroke="#333333" stroke-width="3.724" stroke-opacity="1" stroke-miterlimit="4"/></g><g fill="#373643" fill-opacity="1"><g transform="translate(67.106674, 148.417093)"><g><path d="M 36.921875 -12.75 C 38.984375 -13.914062 40.84375 -14.316406 42.5 -13.953125 C 44.15625 -13.597656 45.492188 -12.816406 46.515625 -11.609375 C 47.546875 -10.398438 48.0625 -8.992188 48.0625 -7.390625 C 48.0625 -6.222656 47.703125 -5.054688 46.984375 -3.890625 C 46.273438 -2.722656 45.160156 -1.738281 43.640625 -0.9375 C 41.671875 0.132812 39.878906 0.78125 38.265625 1 C 36.648438 1.226562 34.769531 1.34375 32.625 1.34375 C 26.8125 1.34375 22.335938 0.132812 19.203125 -2.28125 C 16.066406 -4.695312 13.914062 -7.828125 12.75 -11.671875 C 11.59375 -15.523438 11.015625 -19.601562 11.015625 -23.90625 L 11.015625 -55.59375 L 5.90625 -55.59375 C 3.394531 -55.59375 1.535156 -56.257812 0.328125 -57.59375 C -0.878906 -58.9375 -1.484375 -60.367188 -1.484375 -61.890625 C -1.484375 -63.503906 -0.859375 -64.984375 0.390625 -66.328125 C 1.648438 -67.671875 3.488281 -68.34375 5.90625 -68.34375 L 11.015625 -68.34375 L 11.015625 -79.890625 C 11.015625 -82.210938 11.773438 -83.957031 13.296875 -85.125 C 14.816406 -86.289062 16.5625 -86.875 18.53125 -86.875 C 20.40625 -86.875 22.148438 -86.289062 23.765625 -85.125 C 25.378906 -83.957031 26.1875 -82.210938 26.1875 -79.890625 L 26.1875 -68.34375 L 36.65625 -68.34375 C 38.976562 -68.34375 40.765625 -67.671875 42.015625 -66.328125 C 43.273438 -64.984375 43.90625 -63.503906 43.90625 -61.890625 C 43.90625 -60.285156 43.273438 -58.832031 42.015625 -57.53125 C 40.765625 -56.238281 38.976562 -55.59375 36.65625 -55.59375 L 26.1875 -55.59375 L 26.1875 -23.90625 C 26.1875 -21.9375 26.316406 -20.03125 26.578125 -18.1875 C 26.847656 -16.351562 27.453125 -14.832031 28.390625 -13.625 C 29.335938 -12.414062 30.75 -11.8125 32.625 -11.8125 C 33.34375 -11.8125 34.125 -11.921875 34.96875 -12.140625 C 35.820312 -12.367188 36.472656 -12.570312 36.921875 -12.75 Z M 36.921875 -12.75 "/></g></g></g><g fill="#373643" fill-opacity="1"><g transform="translate(113.688914, 148.417093)"><g><path d="M 38.40625 -11.953125 C 41 -11.953125 43.546875 -12.304688 46.046875 -13.015625 C 48.554688 -13.734375 50.882812 -14.945312 53.03125 -16.65625 C 55.09375 -18.53125 57.109375 -19.398438 59.078125 -19.265625 C 61.046875 -19.128906 62.675781 -18.410156 63.96875 -17.109375 C 65.269531 -15.816406 65.921875 -14.207031 65.921875 -12.28125 C 65.921875 -10.363281 64.984375 -8.507812 63.109375 -6.71875 C 59.972656 -3.664062 56.253906 -1.535156 51.953125 -0.328125 C 47.660156 0.878906 43.273438 1.4375 38.796875 1.34375 C 31.816406 1.34375 25.664062 -0.0859375 20.34375 -2.953125 C 15.019531 -5.816406 10.859375 -9.800781 7.859375 -14.90625 C 4.859375 -20.007812 3.359375 -25.914062 3.359375 -32.625 C 3.359375 -39.96875 4.789062 -46.410156 7.65625 -51.953125 C 10.519531 -57.503906 14.566406 -61.847656 19.796875 -64.984375 C 25.035156 -68.117188 31.238281 -69.6875 38.40625 -69.6875 C 45.5625 -69.6875 51.644531 -68.226562 56.65625 -65.3125 C 61.664062 -62.40625 65.488281 -58.332031 68.125 -53.09375 C 70.769531 -47.863281 72.09375 -41.757812 72.09375 -34.78125 C 72.09375 -32.539062 71.644531 -30.632812 70.75 -29.0625 C 69.863281 -27.5 67.492188 -26.71875 63.640625 -26.71875 L 18.9375 -26.71875 C 20.1875 -22.332031 22.554688 -18.773438 26.046875 -16.046875 C 29.535156 -13.316406 33.65625 -11.953125 38.40625 -11.953125 Z M 38.53125 -56.390625 C 33.34375 -56.390625 29.003906 -54.753906 25.515625 -51.484375 C 22.023438 -48.222656 19.785156 -43.953125 18.796875 -38.671875 L 57.875 -38.671875 C 57.425781 -43.953125 55.675781 -48.222656 52.625 -51.484375 C 49.582031 -54.753906 44.882812 -56.390625 38.53125 -56.390625 Z M 38.53125 -56.390625 "/></g></g></g><g fill="#373643" fill-opacity="1"><g transform="translate(191.684754, 148.417093)"><g><path d="M 62.4375 -68.34375 C 64.757812 -68.34375 66.613281 -67.691406 68 -66.390625 C 69.394531 -65.097656 70.09375 -63.421875 70.09375 -61.359375 L 70.09375 -6.984375 C 70.09375 -4.921875 69.394531 -3.238281 68 -1.9375 C 66.613281 -0.644531 64.757812 0 62.4375 0 C 60.195312 0 58.445312 -0.515625 57.1875 -1.546875 C 55.9375 -2.578125 55.179688 -3.941406 54.921875 -5.640625 C 51.867188 -3.222656 48.460938 -1.453125 44.703125 -0.328125 C 40.953125 0.785156 37.375 1.34375 33.96875 1.34375 C 27.519531 1.34375 21.945312 -0.128906 17.25 -3.078125 C 12.550781 -6.035156 8.945312 -10.195312 6.4375 -15.5625 C 3.9375 -20.9375 2.6875 -27.207031 2.6875 -34.375 C 2.6875 -41.351562 4.070312 -47.484375 6.84375 -52.765625 C 9.625 -58.046875 13.492188 -62.1875 18.453125 -65.1875 C 23.421875 -68.1875 29.175781 -69.6875 35.71875 -69.6875 C 38.582031 -69.6875 41.757812 -69.148438 45.25 -68.078125 C 48.738281 -67.003906 51.960938 -65.300781 54.921875 -62.96875 C 55.273438 -64.582031 56.078125 -65.878906 57.328125 -66.859375 C 58.585938 -67.847656 60.289062 -68.34375 62.4375 -68.34375 Z M 35.578125 -12.21875 C 39.515625 -12.21875 43.316406 -13.085938 46.984375 -14.828125 C 50.660156 -16.578125 53.257812 -19.15625 54.78125 -22.5625 L 54.78125 -45.78125 C 53.082031 -49.09375 50.53125 -51.644531 47.125 -53.4375 C 43.726562 -55.226562 40.28125 -56.125 36.78125 -56.125 C 31.144531 -56.125 26.601562 -54.0625 23.15625 -49.9375 C 19.707031 -45.820312 17.984375 -40.585938 17.984375 -34.234375 C 17.984375 -27.609375 19.59375 -22.28125 22.8125 -18.25 C 26.039062 -14.226562 30.296875 -12.21875 35.578125 -12.21875 Z M 35.578125 -12.21875 "/></g></g></g><g fill="#373643" fill-opacity="1"><g transform="translate(269.277848, 148.417093)"><g><path d="M 20 -6.71875 C 20 -4.925781 19.257812 -3.359375 17.78125 -2.015625 C 16.3125 -0.671875 14.503906 0 12.359375 0 C 10.117188 0 8.28125 -0.671875 6.84375 -2.015625 C 5.414062 -3.359375 4.703125 -4.925781 4.703125 -6.71875 L 4.703125 -80.15625 C 4.703125 -81.945312 5.414062 -83.515625 6.84375 -84.859375 C 8.28125 -86.203125 10.117188 -86.875 12.359375 -86.875 C 14.503906 -86.875 16.3125 -86.203125 17.78125 -84.859375 C 19.257812 -83.515625 20 -81.945312 20 -80.15625 Z M 20 -6.71875 "/></g></g></g><g fill="#373643" fill-opacity="1"><g transform="translate(32.471785, 207.124604)"><g><path d="M 30.578125 -23.390625 C 33.191406 -23.390625 35.328125 -22.550781 36.984375 -20.875 C 38.648438 -19.207031 39.484375 -16.726562 39.484375 -13.4375 L 39.484375 0 L 37.625 0 L 37.625 -13.296875 C 37.625 -16.035156 36.96875 -18.128906 35.65625 -19.578125 C 34.351562 -21.023438 32.5625 -21.75 30.28125 -21.75 C 27.914062 -21.75 26.015625 -20.929688 24.578125 -19.296875 C 23.140625 -17.660156 22.421875 -15.296875 22.421875 -12.203125 L 22.421875 0 L 20.5625 0 L 20.5625 -13.296875 C 20.5625 -16.035156 19.90625 -18.128906 18.59375 -19.578125 C 17.289062 -21.023438 15.5 -21.75 13.21875 -21.75 C 10.851562 -21.75 8.953125 -20.929688 7.515625 -19.296875 C 6.078125 -17.660156 5.359375 -15.296875 5.359375 -12.203125 L 5.359375 0 L 3.46875 0 L 3.46875 -22.9375 L 5.359375 -22.9375 L 5.359375 -17.953125 C 6.003906 -19.753906 7.050781 -21.109375 8.5 -22.015625 C 9.957031 -22.929688 11.628906 -23.390625 13.515625 -23.390625 C 15.597656 -23.390625 17.390625 -22.847656 18.890625 -21.765625 C 20.398438 -20.679688 21.4375 -19.085938 22 -16.984375 C 22.539062 -19.085938 23.582031 -20.679688 25.125 -21.765625 C 26.675781 -22.847656 28.492188 -23.390625 30.578125 -23.390625 Z M 30.578125 -23.390625 "/></g></g></g><g fill="#373643" fill-opacity="1"><g transform="translate(73.64783, 207.124604)"><g><path d="M 22.84375 -22.9375 L 22.84375 0 L 20.953125 0 L 20.953125 -4.984375 C 20.304688 -3.234375 19.226562 -1.898438 17.71875 -0.984375 C 16.207031 -0.078125 14.484375 0.375 12.546875 0.375 C 9.816406 0.375 7.582031 -0.457031 5.84375 -2.125 C 4.113281 -3.800781 3.25 -6.289062 3.25 -9.59375 L 3.25 -22.9375 L 5.109375 -22.9375 L 5.109375 -9.71875 C 5.109375 -6.976562 5.796875 -4.882812 7.171875 -3.4375 C 8.554688 -1.988281 10.429688 -1.265625 12.796875 -1.265625 C 15.273438 -1.265625 17.253906 -2.050781 18.734375 -3.625 C 20.210938 -5.207031 20.953125 -7.546875 20.953125 -10.640625 L 20.953125 -22.9375 Z M 22.84375 -22.9375 "/></g></g></g><g fill="#373643" fill-opacity="1"><g transform="translate(98.353302, 207.124604)"><g><path d="M 11.109375 0.34375 C 8.546875 0.34375 6.453125 -0.21875 4.828125 -1.34375 C 3.210938 -2.476562 2.304688 -4.085938 2.109375 -6.171875 L 4.046875 -6.171875 C 4.191406 -4.671875 4.875 -3.484375 6.09375 -2.609375 C 7.320312 -1.742188 8.992188 -1.3125 11.109375 -1.3125 C 12.847656 -1.3125 14.234375 -1.753906 15.265625 -2.640625 C 16.296875 -3.523438 16.8125 -4.613281 16.8125 -5.90625 C 16.8125 -6.8125 16.535156 -7.550781 15.984375 -8.125 C 15.429688 -8.707031 14.75 -9.148438 13.9375 -9.453125 C 13.125 -9.765625 12.007812 -10.101562 10.59375 -10.46875 C 8.90625 -10.925781 7.539062 -11.367188 6.5 -11.796875 C 5.457031 -12.234375 4.570312 -12.890625 3.84375 -13.765625 C 3.113281 -14.640625 2.75 -15.8125 2.75 -17.28125 C 2.75 -18.34375 3.070312 -19.332031 3.71875 -20.25 C 4.363281 -21.164062 5.265625 -21.890625 6.421875 -22.421875 C 7.578125 -22.960938 8.882812 -23.234375 10.34375 -23.234375 C 12.738281 -23.234375 14.675781 -22.632812 16.15625 -21.4375 C 17.632812 -20.238281 18.429688 -18.582031 18.546875 -16.46875 L 16.640625 -16.46875 C 16.554688 -17.988281 15.960938 -19.226562 14.859375 -20.1875 C 13.765625 -21.144531 12.25 -21.625 10.3125 -21.625 C 8.675781 -21.625 7.320312 -21.203125 6.25 -20.359375 C 5.175781 -19.515625 4.640625 -18.488281 4.640625 -17.28125 C 4.640625 -16.207031 4.941406 -15.335938 5.546875 -14.671875 C 6.160156 -14.015625 6.910156 -13.507812 7.796875 -13.15625 C 8.679688 -12.800781 9.851562 -12.425781 11.3125 -12.03125 C 12.914062 -11.613281 14.203125 -11.195312 15.171875 -10.78125 C 16.148438 -10.375 16.976562 -9.785156 17.65625 -9.015625 C 18.332031 -8.242188 18.671875 -7.207031 18.671875 -5.90625 C 18.671875 -4.726562 18.34375 -3.660156 17.6875 -2.703125 C 17.039062 -1.742188 16.140625 -0.992188 14.984375 -0.453125 C 13.835938 0.078125 12.546875 0.34375 11.109375 0.34375 Z M 11.109375 0.34375 "/></g></g></g><g fill="#373643" fill-opacity="1"><g transform="translate(117.737504, 207.124604)"><g><path d="M 4.4375 -28.046875 C 3.988281 -28.046875 3.609375 -28.191406 3.296875 -28.484375 C 2.984375 -28.785156 2.828125 -29.1875 2.828125 -29.6875 C 2.828125 -30.164062 2.984375 -30.5625 3.296875 -30.875 C 3.609375 -31.1875 3.988281 -31.34375 4.4375 -31.34375 C 4.882812 -31.34375 5.265625 -31.1875 5.578125 -30.875 C 5.890625 -30.5625 6.046875 -30.164062 6.046875 -29.6875 C 6.046875 -29.1875 5.890625 -28.785156 5.578125 -28.484375 C 5.265625 -28.191406 4.882812 -28.046875 4.4375 -28.046875 Z M 5.359375 -22.9375 L 5.359375 0 L 3.46875 0 L 3.46875 -22.9375 Z M 5.359375 -22.9375 "/></g></g></g><g fill="#373643" fill-opacity="1"><g transform="translate(125.001014, 207.124604)"><g><path d="M 2.28125 -11.484375 C 2.28125 -13.878906 2.75 -15.960938 3.6875 -17.734375 C 4.632812 -19.515625 5.945312 -20.875 7.625 -21.8125 C 9.300781 -22.757812 11.222656 -23.234375 13.390625 -23.234375 C 16.265625 -23.234375 18.625 -22.515625 20.46875 -21.078125 C 22.3125 -19.640625 23.457031 -17.707031 23.90625 -15.28125 L 21.921875 -15.28125 C 21.554688 -17.257812 20.601562 -18.8125 19.0625 -19.9375 C 17.53125 -21.0625 15.640625 -21.625 13.390625 -21.625 C 11.703125 -21.625 10.164062 -21.25 8.78125 -20.5 C 7.40625 -19.757812 6.300781 -18.617188 5.46875 -17.078125 C 4.632812 -15.546875 4.21875 -13.679688 4.21875 -11.484375 C 4.21875 -9.265625 4.632812 -7.394531 5.46875 -5.875 C 6.300781 -4.351562 7.40625 -3.210938 8.78125 -2.453125 C 10.164062 -1.691406 11.703125 -1.3125 13.390625 -1.3125 C 15.640625 -1.3125 17.53125 -1.875 19.0625 -3 C 20.601562 -4.125 21.554688 -5.671875 21.921875 -7.640625 L 23.90625 -7.640625 C 23.457031 -5.242188 22.300781 -3.3125 20.4375 -1.84375 C 18.582031 -0.382812 16.234375 0.34375 13.390625 0.34375 C 11.222656 0.34375 9.300781 -0.132812 7.625 -1.09375 C 5.945312 -2.050781 4.632812 -3.421875 3.6875 -5.203125 C 2.75 -6.992188 2.28125 -9.085938 2.28125 -11.484375 Z M 2.28125 -11.484375 "/></g></g></g><g fill="#373643" fill-opacity="1"><g transform="translate(149.622021, 207.124604)"><g/></g></g><g fill="#373643" fill-opacity="1"><g transform="translate(159.926268, 207.124604)"><g><path d="M 11.109375 0.34375 C 8.546875 0.34375 6.453125 -0.21875 4.828125 -1.34375 C 3.210938 -2.476562 2.304688 -4.085938 2.109375 -6.171875 L 4.046875 -6.171875 C 4.191406 -4.671875 4.875 -3.484375 6.09375 -2.609375 C 7.320312 -1.742188 8.992188 -1.3125 11.109375 -1.3125 C 12.847656 -1.3125 14.234375 -1.753906 15.265625 -2.640625 C 16.296875 -3.523438 16.8125 -4.613281 16.8125 -5.90625 C 16.8125 -6.8125 16.535156 -7.550781 15.984375 -8.125 C 15.429688 -8.707031 14.75 -9.148438 13.9375 -9.453125 C 13.125 -9.765625 12.007812 -10.101562 10.59375 -10.46875 C 8.90625 -10.925781 7.539062 -11.367188 6.5 -11.796875 C 5.457031 -12.234375 4.570312 -12.890625 3.84375 -13.765625 C 3.113281 -14.640625 2.75 -15.8125 2.75 -17.28125 C 2.75 -18.34375 3.070312 -19.332031 3.71875 -20.25 C 4.363281 -21.164062 5.265625 -21.890625 6.421875 -22.421875 C 7.578125 -22.960938 8.882812 -23.234375 10.34375 -23.234375 C 12.738281 -23.234375 14.675781 -22.632812 16.15625 -21.4375 C 17.632812 -20.238281 18.429688 -18.582031 18.546875 -16.46875 L 16.640625 -16.46875 C 16.554688 -17.988281 15.960938 -19.226562 14.859375 -20.1875 C 13.765625 -21.144531 12.25 -21.625 10.3125 -21.625 C 8.675781 -21.625 7.320312 -21.203125 6.25 -20.359375 C 5.175781 -19.515625 4.640625 -18.488281 4.640625 -17.28125 C 4.640625 -16.207031 4.941406 -15.335938 5.546875 -14.671875 C 6.160156 -14.015625 6.910156 -13.507812 7.796875 -13.15625 C 8.679688 -12.800781 9.851562 -12.425781 11.3125 -12.03125 C 12.914062 -11.613281 14.203125 -11.195312 15.171875 -10.78125 C 16.148438 -10.375 16.976562 -9.785156 17.65625 -9.015625 C 18.332031 -8.242188 18.671875 -7.207031 18.671875 -5.90625 C 18.671875 -4.726562 18.34375 -3.660156 17.6875 -2.703125 C 17.039062 -1.742188 16.140625 -0.992188 14.984375 -0.453125 C 13.835938 0.078125 12.546875 0.34375 11.109375 0.34375 Z M 11.109375 0.34375 "/></g></g></g><g fill="#373643" fill-opacity="1"><g transform="translate(179.310463, 207.124604)"><g><path d="M 2.28125 -11.484375 C 2.28125 -13.878906 2.75 -15.960938 3.6875 -17.734375 C 4.632812 -19.515625 5.945312 -20.875 7.625 -21.8125 C 9.300781 -22.757812 11.222656 -23.234375 13.390625 -23.234375 C 16.265625 -23.234375 18.625 -22.515625 20.46875 -21.078125 C 22.3125 -19.640625 23.457031 -17.707031 23.90625 -15.28125 L 21.921875 -15.28125 C 21.554688 -17.257812 20.601562 -18.8125 19.0625 -19.9375 C 17.53125 -21.0625 15.640625 -21.625 13.390625 -21.625 C 11.703125 -21.625 10.164062 -21.25 8.78125 -20.5 C 7.40625 -19.757812 6.300781 -18.617188 5.46875 -17.078125 C 4.632812 -15.546875 4.21875 -13.679688 4.21875 -11.484375 C 4.21875 -9.265625 4.632812 -7.394531 5.46875 -5.875 C 6.300781 -4.351562 7.40625 -3.210938 8.78125 -2.453125 C 10.164062 -1.691406 11.703125 -1.3125 13.390625 -1.3125 C 15.640625 -1.3125 17.53125 -1.875 19.0625 -3 C 20.601562 -4.125 21.554688 -5.671875 21.921875 -7.640625 L 23.90625 -7.640625 C 23.457031 -5.242188 22.300781 -3.3125 20.4375 -1.84375 C 18.582031 -0.382812 16.234375 0.34375 13.390625 0.34375 C 11.222656 0.34375 9.300781 -0.132812 7.625 -1.09375 C 5.945312 -2.050781 4.632812 -3.421875 3.6875 -5.203125 C 2.75 -6.992188 2.28125 -9.085938 2.28125 -11.484375 Z M 2.28125 -11.484375 "/></g></g></g><g fill="#373643" fill-opacity="1"><g transform="translate(203.93147, 207.124604)"><g><path d="M 13.859375 -23.390625 C 16.554688 -23.390625 18.765625 -22.550781 20.484375 -20.875 C 22.203125 -19.207031 23.0625 -16.726562 23.0625 -13.4375 L 23.0625 0 L 21.203125 0 L 21.203125 -13.296875 C 21.203125 -16.035156 20.507812 -18.128906 19.125 -19.578125 C 17.75 -21.023438 15.878906 -21.75 13.515625 -21.75 C 11.035156 -21.75 9.054688 -20.957031 7.578125 -19.375 C 6.097656 -17.800781 5.359375 -15.46875 5.359375 -12.375 L 5.359375 0 L 3.46875 0 L 3.46875 -31.25 L 5.359375 -31.25 L 5.359375 -18.078125 C 6.003906 -19.796875 7.085938 -21.109375 8.609375 -22.015625 C 10.128906 -22.929688 11.878906 -23.390625 13.859375 -23.390625 Z M 13.859375 -23.390625 "/></g></g></g><g fill="#373643" fill-opacity="1"><g transform="translate(228.636937, 207.124604)"><g><path d="M 13.5625 0.34375 C 11.414062 0.34375 9.484375 -0.132812 7.765625 -1.09375 C 6.046875 -2.050781 4.703125 -3.421875 3.734375 -5.203125 C 2.765625 -6.992188 2.28125 -9.085938 2.28125 -11.484375 C 2.28125 -13.847656 2.769531 -15.925781 3.75 -17.71875 C 4.738281 -19.507812 6.097656 -20.875 7.828125 -21.8125 C 9.566406 -22.757812 11.503906 -23.234375 13.640625 -23.234375 C 15.773438 -23.234375 17.703125 -22.757812 19.421875 -21.8125 C 21.140625 -20.875 22.484375 -19.515625 23.453125 -17.734375 C 24.429688 -15.960938 24.921875 -13.878906 24.921875 -11.484375 C 24.921875 -9.085938 24.425781 -6.992188 23.4375 -5.203125 C 22.457031 -3.421875 21.097656 -2.050781 19.359375 -1.09375 C 17.628906 -0.132812 15.695312 0.34375 13.5625 0.34375 Z M 13.5625 -1.34375 C 15.21875 -1.34375 16.769531 -1.71875 18.21875 -2.46875 C 19.675781 -3.21875 20.835938 -4.351562 21.703125 -5.875 C 22.578125 -7.394531 23.015625 -9.265625 23.015625 -11.484375 C 23.015625 -13.679688 22.578125 -15.539062 21.703125 -17.0625 C 20.835938 -18.582031 19.6875 -19.710938 18.25 -20.453125 C 16.8125 -21.203125 15.257812 -21.578125 13.59375 -21.578125 C 11.9375 -21.578125 10.394531 -21.203125 8.96875 -20.453125 C 7.550781 -19.710938 6.40625 -18.582031 5.53125 -17.0625 C 4.65625 -15.539062 4.21875 -13.679688 4.21875 -11.484375 C 4.21875 -9.265625 4.644531 -7.394531 5.5 -5.875 C 6.363281 -4.351562 7.503906 -3.21875 8.921875 -2.46875 C 10.347656 -1.71875 11.894531 -1.34375 13.5625 -1.34375 Z M 13.5625 -1.34375 "/></g></g></g><g fill="#373643" fill-opacity="1"><g transform="translate(254.27149, 207.124604)"><g><path d="M 13.5625 0.34375 C 11.414062 0.34375 9.484375 -0.132812 7.765625 -1.09375 C 6.046875 -2.050781 4.703125 -3.421875 3.734375 -5.203125 C 2.765625 -6.992188 2.28125 -9.085938 2.28125 -11.484375 C 2.28125 -13.847656 2.769531 -15.925781 3.75 -17.71875 C 4.738281 -19.507812 6.097656 -20.875 7.828125 -21.8125 C 9.566406 -22.757812 11.503906 -23.234375 13.640625 -23.234375 C 15.773438 -23.234375 17.703125 -22.757812 19.421875 -21.8125 C 21.140625 -20.875 22.484375 -19.515625 23.453125 -17.734375 C 24.429688 -15.960938 24.921875 -13.878906 24.921875 -11.484375 C 24.921875 -9.085938 24.425781 -6.992188 23.4375 -5.203125 C 22.457031 -3.421875 21.097656 -2.050781 19.359375 -1.09375 C 17.628906 -0.132812 15.695312 0.34375 13.5625 0.34375 Z M 13.5625 -1.34375 C 15.21875 -1.34375 16.769531 -1.71875 18.21875 -2.46875 C 19.675781 -3.21875 20.835938 -4.351562 21.703125 -5.875 C 22.578125 -7.394531 23.015625 -9.265625 23.015625 -11.484375 C 23.015625 -13.679688 22.578125 -15.539062 21.703125 -17.0625 C 20.835938 -18.582031 19.6875 -19.710938 18.25 -20.453125 C 16.8125 -21.203125 15.257812 -21.578125 13.59375 -21.578125 C 11.9375 -21.578125 10.394531 -21.203125 8.96875 -20.453125 C 7.550781 -19.710938 6.40625 -18.582031 5.53125 -17.0625 C 4.65625 -15.539062 4.21875 -13.679688 4.21875 -11.484375 C 4.21875 -9.265625 4.644531 -7.394531 5.5 -5.875 C 6.363281 -4.351562 7.503906 -3.21875 8.921875 -2.46875 C 10.347656 -1.71875 11.894531 -1.34375 13.5625 -1.34375 Z M 13.5625 -1.34375 "/></g></g></g><g fill="#373643" fill-opacity="1"><g transform="translate(279.906044, 207.124604)"><g><path d="M 5.359375 -31.25 L 5.359375 0 L 3.46875 0 L 3.46875 -31.25 Z M 5.359375 -31.25 "/></g></g></g><g fill="#373643" fill-opacity="1"><g transform="translate(287.169554, 207.124604)"><g/></g></g><g fill="#373643" fill-opacity="1"><g transform="translate(297.473801, 207.124604)"><g><path d="M 15.84375 -29.65625 L 15.84375 -6.625 C 15.84375 -4.570312 15.207031 -2.90625 13.9375 -1.625 C 12.664062 -0.34375 10.945312 0.296875 8.78125 0.296875 C 6.5 0.296875 4.703125 -0.398438 3.390625 -1.796875 C 2.085938 -3.191406 1.4375 -5.113281 1.4375 -7.5625 L 3.34375 -7.5625 C 3.34375 -5.757812 3.773438 -4.28125 4.640625 -3.125 C 5.515625 -1.96875 6.894531 -1.390625 8.78125 -1.390625 C 10.582031 -1.390625 11.882812 -1.90625 12.6875 -2.9375 C 13.488281 -3.96875 13.890625 -5.195312 13.890625 -6.625 L 13.890625 -29.65625 Z M 15.84375 -29.65625 "/></g></g></g><g fill="#373643" fill-opacity="1"><g transform="translate(315.422102, 207.124604)"><g><path d="M 4.4375 -28.046875 C 3.988281 -28.046875 3.609375 -28.191406 3.296875 -28.484375 C 2.984375 -28.785156 2.828125 -29.1875 2.828125 -29.6875 C 2.828125 -30.164062 2.984375 -30.5625 3.296875 -30.875 C 3.609375 -31.1875 3.988281 -31.34375 4.4375 -31.34375 C 4.882812 -31.34375 5.265625 -31.1875 5.578125 -30.875 C 5.890625 -30.5625 6.046875 -30.164062 6.046875 -29.6875 C 6.046875 -29.1875 5.890625 -28.785156 5.578125 -28.484375 C 5.265625 -28.191406 4.882812 -28.046875 4.4375 -28.046875 Z M 5.359375 -22.9375 L 5.359375 0 L 3.46875 0 L 3.46875 -22.9375 Z M 5.359375 -22.9375 "/></g></g></g><g fill="#373643" fill-opacity="1"><g transform="translate(322.685613, 207.124604)"><g><path d="M 21.375 -22.9375 L 8.03125 10.765625 L 6.078125 10.765625 L 10.34375 0 L 0.71875 -22.9375 L 2.78125 -22.9375 L 11.40625 -2.109375 L 19.421875 -22.9375 Z M 21.375 -22.9375 "/></g></g></g><g fill="#373643" fill-opacity="1"><g transform="translate(343.210075, 207.124604)"><g><path d="M 22.84375 -22.9375 L 22.84375 0 L 20.953125 0 L 20.953125 -4.984375 C 20.304688 -3.234375 19.226562 -1.898438 17.71875 -0.984375 C 16.207031 -0.078125 14.484375 0.375 12.546875 0.375 C 9.816406 0.375 7.582031 -0.457031 5.84375 -2.125 C 4.113281 -3.800781 3.25 -6.289062 3.25 -9.59375 L 3.25 -22.9375 L 5.109375 -22.9375 L 5.109375 -9.71875 C 5.109375 -6.976562 5.796875 -4.882812 7.171875 -3.4375 C 8.554688 -1.988281 10.429688 -1.265625 12.796875 -1.265625 C 15.273438 -1.265625 17.253906 -2.050781 18.734375 -3.625 C 20.210938 -5.207031 20.953125 -7.546875 20.953125 -10.640625 L 20.953125 -22.9375 Z M 22.84375 -22.9375 "/></g></g></g><g fill="#373643" fill-opacity="1"><g transform="translate(367.915542, 207.124604)"><g><path d="M 13.34375 -23.234375 C 15.769531 -23.234375 17.828125 -22.644531 19.515625 -21.46875 C 21.203125 -20.300781 22.382812 -18.804688 23.0625 -16.984375 L 23.0625 -22.9375 L 24.953125 -22.9375 L 24.953125 0.71875 C 24.953125 2.832031 24.488281 4.679688 23.5625 6.265625 C 22.632812 7.859375 21.378906 9.082031 19.796875 9.9375 C 18.222656 10.800781 16.46875 11.234375 14.53125 11.234375 C 11.65625 11.234375 9.273438 10.539062 7.390625 9.15625 C 5.503906 7.78125 4.265625 5.925781 3.671875 3.59375 L 5.578125 3.59375 C 6.140625 5.414062 7.191406 6.867188 8.734375 7.953125 C 10.285156 9.046875 12.21875 9.59375 14.53125 9.59375 C 16.132812 9.59375 17.582031 9.234375 18.875 8.515625 C 20.175781 7.796875 21.195312 6.765625 21.9375 5.421875 C 22.6875 4.085938 23.0625 2.519531 23.0625 0.71875 L 23.0625 -6 C 22.382812 -4.164062 21.191406 -2.648438 19.484375 -1.453125 C 17.785156 -0.253906 15.738281 0.34375 13.34375 0.34375 C 11.207031 0.34375 9.300781 -0.140625 7.625 -1.109375 C 5.945312 -2.085938 4.632812 -3.46875 3.6875 -5.25 C 2.75 -7.039062 2.28125 -9.117188 2.28125 -11.484375 C 2.28125 -13.847656 2.75 -15.914062 3.6875 -17.6875 C 4.632812 -19.46875 5.945312 -20.835938 7.625 -21.796875 C 9.300781 -22.753906 11.207031 -23.234375 13.34375 -23.234375 Z M 23.0625 -11.484375 C 23.0625 -13.484375 22.644531 -15.25 21.8125 -16.78125 C 20.976562 -18.320312 19.84375 -19.503906 18.40625 -20.328125 C 16.976562 -21.160156 15.375 -21.578125 13.59375 -21.578125 C 11.738281 -21.578125 10.109375 -21.175781 8.703125 -20.375 C 7.296875 -19.570312 6.195312 -18.410156 5.40625 -16.890625 C 4.613281 -15.367188 4.21875 -13.566406 4.21875 -11.484375 C 4.21875 -9.398438 4.613281 -7.597656 5.40625 -6.078125 C 6.195312 -4.554688 7.300781 -3.382812 8.71875 -2.5625 C 10.144531 -1.75 11.769531 -1.34375 13.59375 -1.34375 C 15.375 -1.34375 16.988281 -1.757812 18.4375 -2.59375 C 19.882812 -3.425781 21.015625 -4.609375 21.828125 -6.140625 C 22.648438 -7.679688 23.0625 -9.460938 23.0625 -11.484375 Z M 23.0625 -11.484375 "/></g></g></g><g fill="#373643" fill-opacity="1"><g transform="translate(394.732626, 207.124604)"><g><path d="M 2.28125 -11.484375 C 2.28125 -13.847656 2.75 -15.914062 3.6875 -17.6875 C 4.632812 -19.46875 5.945312 -20.835938 7.625 -21.796875 C 9.300781 -22.753906 11.207031 -23.234375 13.34375 -23.234375 C 15.769531 -23.234375 17.828125 -22.640625 19.515625 -21.453125 C 21.203125 -20.273438 22.382812 -18.769531 23.0625 -16.9375 L 23.0625 -22.9375 L 24.953125 -22.9375 L 24.953125 0 L 23.0625 0 L 23.0625 -6.046875 C 22.382812 -4.179688 21.191406 -2.648438 19.484375 -1.453125 C 17.785156 -0.253906 15.738281 0.34375 13.34375 0.34375 C 11.207031 0.34375 9.300781 -0.140625 7.625 -1.109375 C 5.945312 -2.085938 4.632812 -3.46875 3.6875 -5.25 C 2.75 -7.039062 2.28125 -9.117188 2.28125 -11.484375 Z M 23.0625 -11.484375 C 23.0625 -13.484375 22.644531 -15.25 21.8125 -16.78125 C 20.976562 -18.320312 19.84375 -19.503906 18.40625 -20.328125 C 16.976562 -21.160156 15.375 -21.578125 13.59375 -21.578125 C 11.738281 -21.578125 10.109375 -21.175781 8.703125 -20.375 C 7.296875 -19.570312 6.195312 -18.410156 5.40625 -16.890625 C 4.613281 -15.367188 4.21875 -13.566406 4.21875 -11.484375 C 4.21875 -9.398438 4.613281 -7.597656 5.40625 -6.078125 C 6.195312 -4.554688 7.300781 -3.382812 8.71875 -2.5625 C 10.144531 -1.75 11.769531 -1.34375 13.59375 -1.34375 C 15.375 -1.34375 16.988281 -1.757812 18.4375 -2.59375 C 19.882812 -3.425781 21.015625 -4.609375 21.828125 -6.140625 C 22.648438 -7.679688 23.0625 -9.460938 23.0625 -11.484375 Z M 23.0625 -11.484375 "/></g></g></g><g fill="#373643" fill-opacity="1"><g transform="translate(421.54971, 207.124604)"><g><path d="M 13.5625 0.34375 C 11.414062 0.34375 9.484375 -0.132812 7.765625 -1.09375 C 6.046875 -2.050781 4.703125 -3.421875 3.734375 -5.203125 C 2.765625 -6.992188 2.28125 -9.085938 2.28125 -11.484375 C 2.28125 -13.847656 2.769531 -15.925781 3.75 -17.71875 C 4.738281 -19.507812 6.097656 -20.875 7.828125 -21.8125 C 9.566406 -22.757812 11.503906 -23.234375 13.640625 -23.234375 C 15.773438 -23.234375 17.703125 -22.757812 19.421875 -21.8125 C 21.140625 -20.875 22.484375 -19.515625 23.453125 -17.734375 C 24.429688 -15.960938 24.921875 -13.878906 24.921875 -11.484375 C 24.921875 -9.085938 24.425781 -6.992188 23.4375 -5.203125 C 22.457031 -3.421875 21.097656 -2.050781 19.359375 -1.09375 C 17.628906 -0.132812 15.695312 0.34375 13.5625 0.34375 Z M 13.5625 -1.34375 C 15.21875 -1.34375 16.769531 -1.71875 18.21875 -2.46875 C 19.675781 -3.21875 20.835938 -4.351562 21.703125 -5.875 C 22.578125 -7.394531 23.015625 -9.265625 23.015625 -11.484375 C 23.015625 -13.679688 22.578125 -15.539062 21.703125 -17.0625 C 20.835938 -18.582031 19.6875 -19.710938 18.25 -20.453125 C 16.8125 -21.203125 15.257812 -21.578125 13.59375 -21.578125 C 11.9375 -21.578125 10.394531 -21.203125 8.96875 -20.453125 C 7.550781 -19.710938 6.40625 -18.582031 5.53125 -17.0625 C 4.65625 -15.539062 4.21875 -13.679688 4.21875 -11.484375 C 4.21875 -9.265625 4.644531 -7.394531 5.5 -5.875 C 6.363281 -4.351562 7.503906 -3.21875 8.921875 -2.46875 C 10.347656 -1.71875 11.894531 -1.34375 13.5625 -1.34375 Z M 13.5625 -1.34375 "/></g></g></g><g fill="#373643" fill-opacity="1"><g transform="translate(447.184263, 207.124604)"><g><path d="M 15.375 0 L 5.359375 -10.515625 L 5.359375 0 L 3.46875 0 L 3.46875 -31.25 L 5.359375 -31.25 L 5.359375 -12.546875 L 15.203125 -22.9375 L 17.859375 -22.9375 L 6.75 -11.53125 L 17.984375 0 Z M 15.375 0 "/></g></g></g><g fill="#373643" fill-opacity="1"><g transform="translate(464.03451, 207.124604)"><g><path d="M 2.28125 -11.484375 C 2.28125 -13.847656 2.75 -15.914062 3.6875 -17.6875 C 4.632812 -19.46875 5.945312 -20.835938 7.625 -21.796875 C 9.300781 -22.753906 11.207031 -23.234375 13.34375 -23.234375 C 15.769531 -23.234375 17.828125 -22.640625 19.515625 -21.453125 C 21.203125 -20.273438 22.382812 -18.769531 23.0625 -16.9375 L 23.0625 -22.9375 L 24.953125 -22.9375 L 24.953125 0 L 23.0625 0 L 23.0625 -6.046875 C 22.382812 -4.179688 21.191406 -2.648438 19.484375 -1.453125 C 17.785156 -0.253906 15.738281 0.34375 13.34375 0.34375 C 11.207031 0.34375 9.300781 -0.140625 7.625 -1.109375 C 5.945312 -2.085938 4.632812 -3.46875 3.6875 -5.25 C 2.75 -7.039062 2.28125 -9.117188 2.28125 -11.484375 Z M 23.0625 -11.484375 C 23.0625 -13.484375 22.644531 -15.25 21.8125 -16.78125 C 20.976562 -18.320312 19.84375 -19.503906 18.40625 -20.328125 C 16.976562 -21.160156 15.375 -21.578125 13.59375 -21.578125 C 11.738281 -21.578125 10.109375 -21.175781 8.703125 -20.375 C 7.296875 -19.570312 6.195312 -18.410156 5.40625 -16.890625 C 4.613281 -15.367188 4.21875 -13.566406 4.21875 -11.484375 C 4.21875 -9.398438 4.613281 -7.597656 5.40625 -6.078125 C 6.195312 -4.554688 7.300781 -3.382812 8.71875 -2.5625 C 10.144531 -1.75 11.769531 -1.34375 13.59375 -1.34375 C 15.375 -1.34375 16.988281 -1.757812 18.4375 -2.59375 C 19.882812 -3.425781 21.015625 -4.609375 21.828125 -6.140625 C 22.648438 -7.679688 23.0625 -9.460938 23.0625 -11.484375 Z M 23.0625 -11.484375 "/></g></g></g></svg>