<svg xmlns="http://www.w3.org/2000/svg" xmlns:xlink="http://www.w3.org/1999/xlink" width="700" zoomAndPan="magnify" viewBox="0 0 525 187.499995" height="250" preserveAspectRatio="xMidYMid meet" version="1.0"><defs><g/><clipPath id="75b973102e"><path d="M 468 13 L 518 13 L 518 64 L 468 64 Z M 468 13 " clip-rule="nonzero"/></clipPath><clipPath id="98210cf681"><path d="M 458.195312 19.742188 L 494.492188 -10.316406 L 539.335938 43.839844 L 503.042969 73.894531 Z M 458.195312 19.742188 " clip-rule="nonzero"/></clipPath><clipPath id="b5c2655b35"><path d="M 458.195312 19.742188 L 494.492188 -10.316406 L 539.335938 43.839844 L 503.042969 73.894531 Z M 458.195312 19.742188 " clip-rule="nonzero"/></clipPath><clipPath id="d99dcfe506"><path d="M 445 31 L 495 31 L 495 83 L 445 83 Z M 445 31 " clip-rule="nonzero"/></clipPath><clipPath id="1e9d3ebb5d"><path d="M 435.773438 38.507812 L 472.070312 8.453125 L 516.914062 62.605469 L 480.621094 92.660156 Z M 435.773438 38.507812 " clip-rule="nonzero"/></clipPath><clipPath id="c8489c547b"><path d="M 435.773438 38.507812 L 472.070312 8.453125 L 516.914062 62.605469 L 480.621094 92.660156 Z M 435.773438 38.507812 " clip-rule="nonzero"/></clipPath><clipPath id="cd89ec5bed"><path d="M 320 5.171875 L 433 5.171875 L 433 68 L 320 68 Z M 320 5.171875 " clip-rule="nonzero"/></clipPath><clipPath id="5fded2418d"><path d="M 336 54 L 348 54 L 348 137.570312 L 336 137.570312 Z M 336 54 " clip-rule="nonzero"/></clipPath><clipPath id="b0419aa3ae"><path d="M 405 54 L 417 54 L 417 137.570312 L 405 137.570312 Z M 405 54 " clip-rule="nonzero"/></clipPath></defs><g clip-path="url(#75b973102e)"><g clip-path="url(#98210cf681)"><g clip-path="url(#b5c2655b35)"><path fill="#18cb96" d="M 517.105469 17.210938 L 475.304688 13.066406 C 467.230469 12.265625 465.003906 27.957031 474.578125 28.742188 L 500.613281 30.867188 L 497.195312 56.996094 C 496.152344 64.953125 511.6875 66.644531 512.574219 58.546875 Z M 517.105469 17.210938 " fill-opacity="1" fill-rule="nonzero"/></g></g></g><g clip-path="url(#d99dcfe506)"><g clip-path="url(#1e9d3ebb5d)"><g clip-path="url(#c8489c547b)"><path fill="#18cb96" d="M 494.683594 35.976562 L 452.878906 31.832031 C 444.804688 31.035156 442.582031 46.726562 452.15625 47.507812 L 478.191406 49.632812 L 474.773438 75.761719 C 473.730469 83.71875 489.265625 85.410156 490.152344 77.316406 Z M 494.683594 35.976562 " fill-opacity="1" fill-rule="nonzero"/></g></g></g><g clip-path="url(#cd89ec5bed)"><path stroke-linecap="round" transform="matrix(2.991546, 0.000000000000000023, -0.000000000000000023, 2.991546, 286.320656, -18.160416)" fill="none" stroke-linejoin="round" d="M 13.359145 26.285093 L 13.359145 22.486629 C 15.891019 16.156291 20.324084 9.910827 30.386293 9.581775 C 40.448501 10.044015 44.536845 15.83899 47.068719 22.327326 L 47.068719 26.759085 " stroke="#333333" stroke-width="3.553" stroke-opacity="1" stroke-miterlimit="4"/></g><path stroke-linecap="round" transform="matrix(2.991546, 0.000000000000000023, -0.000000000000000023, 2.991546, 286.320656, -18.160416)" fill-opacity="1" fill="#373643" fill-rule="evenodd" stroke-linejoin="round" d="M 13.30822 26.283787 C 7.850131 27.40152 3.743507 32.232843 3.743507 38.019984 C 3.743507 43.825405 7.878858 48.658034 13.363062 49.75618 L 13.363062 26.283787 C 13.346087 26.287705 13.325195 26.27987 13.30822 26.283787 Z M 13.30822 26.283787 " stroke="#333333" stroke-width="3.553" stroke-opacity="1" stroke-miterlimit="4"/><path stroke-linecap="round" transform="matrix(2.991546, 0.000000000000000023, -0.000000000000000023, 2.991546, 286.320656, -18.160416)" fill-opacity="1" fill="#373643" fill-rule="evenodd" stroke-linejoin="round" d="M 47.161428 26.283787 C 52.619517 27.40152 56.726141 32.232843 56.726141 38.019984 C 56.726141 43.825405 52.59079 48.658034 47.106586 49.75618 L 47.106586 26.283787 C 47.124867 26.287705 47.144453 26.27987 47.161428 26.283787 Z M 47.161428 26.283787 " stroke="#333333" stroke-width="3.553" stroke-opacity="1" stroke-miterlimit="4"/><g clip-path="url(#5fded2418d)"><path stroke-linecap="round" transform="matrix(2.991546, 0.000000000000000023, -0.000000000000000023, 2.991546, 286.320656, -18.160416)" fill="none" stroke-linejoin="round" d="M 18.6736 26.077477 L 18.6736 50.213197 " stroke="#333333" stroke-width="3.724" stroke-opacity="1" stroke-miterlimit="4"/></g><g clip-path="url(#b0419aa3ae)"><path stroke-linecap="round" transform="matrix(2.991546, 0.000000000000000023, -0.000000000000000023, 2.991546, 286.320656, -18.160416)" fill="none" stroke-linejoin="round" d="M 41.694199 26.077477 L 41.694199 50.213197 " stroke="#333333" stroke-width="3.724" stroke-opacity="1" stroke-miterlimit="4"/></g><g fill="#373643" fill-opacity="1"><g transform="translate(12.009182, 134.611981)"><g><path d="M 42.875 -14.8125 C 45.257812 -16.164062 47.410156 -16.632812 49.328125 -16.21875 C 51.253906 -15.800781 52.816406 -14.890625 54.015625 -13.484375 C 55.210938 -12.078125 55.8125 -10.441406 55.8125 -8.578125 C 55.8125 -7.222656 55.394531 -5.867188 54.5625 -4.515625 C 53.726562 -3.171875 52.429688 -2.03125 50.671875 -1.09375 C 48.378906 0.15625 46.296875 0.910156 44.421875 1.171875 C 42.554688 1.429688 40.375 1.5625 37.875 1.5625 C 31.125 1.5625 25.929688 0.160156 22.296875 -2.640625 C 18.660156 -5.453125 16.164062 -9.09375 14.8125 -13.5625 C 13.457031 -18.03125 12.78125 -22.757812 12.78125 -27.75 L 12.78125 -64.53125 L 6.859375 -64.53125 C 3.953125 -64.53125 1.796875 -65.3125 0.390625 -66.875 C -1.015625 -68.4375 -1.71875 -70.097656 -1.71875 -71.859375 C -1.71875 -73.734375 -0.988281 -75.445312 0.46875 -77 C 1.925781 -78.5625 4.054688 -79.34375 6.859375 -79.34375 L 12.78125 -79.34375 L 12.78125 -92.75 C 12.78125 -95.457031 13.660156 -97.484375 15.421875 -98.828125 C 17.191406 -100.179688 19.222656 -100.859375 21.515625 -100.859375 C 23.691406 -100.859375 25.71875 -100.179688 27.59375 -98.828125 C 29.46875 -97.484375 30.40625 -95.457031 30.40625 -92.75 L 30.40625 -79.34375 L 42.5625 -79.34375 C 45.257812 -79.34375 47.332031 -78.5625 48.78125 -77 C 50.238281 -75.445312 50.96875 -73.734375 50.96875 -71.859375 C 50.96875 -69.992188 50.238281 -68.304688 48.78125 -66.796875 C 47.332031 -65.285156 45.257812 -64.53125 42.5625 -64.53125 L 30.40625 -64.53125 L 30.40625 -27.75 C 30.40625 -25.457031 30.554688 -23.242188 30.859375 -21.109375 C 31.171875 -18.984375 31.875 -17.21875 32.96875 -15.8125 C 34.0625 -14.414062 35.695312 -13.71875 37.875 -13.71875 C 38.707031 -13.71875 39.617188 -13.847656 40.609375 -14.109375 C 41.597656 -14.367188 42.351562 -14.601562 42.875 -14.8125 Z M 42.875 -14.8125 "/></g></g></g><g fill="#373643" fill-opacity="1"><g transform="translate(66.095893, 134.611981)"><g><path d="M 44.578125 -13.875 C 47.597656 -13.875 50.5625 -14.289062 53.46875 -15.125 C 56.375 -15.957031 59.078125 -17.359375 61.578125 -19.328125 C 63.960938 -21.515625 66.296875 -22.53125 68.578125 -22.375 C 70.867188 -22.21875 72.769531 -21.382812 74.28125 -19.875 C 75.789062 -18.363281 76.546875 -16.488281 76.546875 -14.25 C 76.546875 -12.019531 75.453125 -9.867188 73.265625 -7.796875 C 69.628906 -4.265625 65.316406 -1.796875 60.328125 -0.390625 C 55.335938 1.015625 50.242188 1.664062 45.046875 1.5625 C 36.941406 1.5625 29.796875 -0.0976562 23.609375 -3.421875 C 17.429688 -6.753906 12.597656 -11.378906 9.109375 -17.296875 C 5.628906 -23.222656 3.890625 -30.082031 3.890625 -37.875 C 3.890625 -46.40625 5.550781 -53.890625 8.875 -60.328125 C 12.207031 -66.773438 16.910156 -71.816406 22.984375 -75.453125 C 29.066406 -79.085938 36.265625 -80.90625 44.578125 -80.90625 C 52.898438 -80.90625 59.96875 -79.21875 65.78125 -75.84375 C 71.601562 -72.46875 76.046875 -67.738281 79.109375 -61.65625 C 82.179688 -55.570312 83.71875 -48.476562 83.71875 -40.375 C 83.71875 -37.78125 83.195312 -35.570312 82.15625 -33.75 C 81.113281 -31.925781 78.359375 -31.015625 73.890625 -31.015625 L 21.984375 -31.015625 C 23.429688 -25.929688 26.179688 -21.800781 30.234375 -18.625 C 34.296875 -15.457031 39.078125 -13.875 44.578125 -13.875 Z M 44.734375 -65.46875 C 38.710938 -65.46875 33.675781 -63.570312 29.625 -59.78125 C 25.570312 -55.988281 22.972656 -51.023438 21.828125 -44.890625 L 67.1875 -44.890625 C 66.664062 -51.023438 64.640625 -55.988281 61.109375 -59.78125 C 57.578125 -63.570312 52.117188 -65.46875 44.734375 -65.46875 Z M 44.734375 -65.46875 "/></g></g></g><g fill="#373643" fill-opacity="1"><g transform="translate(156.656985, 134.611981)"><g><path d="M 72.484375 -79.34375 C 75.191406 -79.34375 77.347656 -78.585938 78.953125 -77.078125 C 80.566406 -75.578125 81.375 -73.628906 81.375 -71.234375 L 81.375 -8.109375 C 81.375 -5.710938 80.566406 -3.757812 78.953125 -2.25 C 77.347656 -0.75 75.191406 0 72.484375 0 C 69.890625 0 67.863281 -0.59375 66.40625 -1.78125 C 64.957031 -2.976562 64.078125 -4.566406 63.765625 -6.546875 C 60.222656 -3.742188 56.269531 -1.691406 51.90625 -0.390625 C 47.539062 0.910156 43.382812 1.5625 39.4375 1.5625 C 31.957031 1.5625 25.488281 -0.148438 20.03125 -3.578125 C 14.570312 -7.015625 10.390625 -11.847656 7.484375 -18.078125 C 4.578125 -24.316406 3.125 -31.59375 3.125 -39.90625 C 3.125 -48.007812 4.734375 -55.128906 7.953125 -61.265625 C 11.171875 -67.398438 15.664062 -72.207031 21.4375 -75.6875 C 27.207031 -79.164062 33.882812 -80.90625 41.46875 -80.90625 C 44.789062 -80.90625 48.476562 -80.28125 52.53125 -79.03125 C 56.582031 -77.789062 60.328125 -75.816406 63.765625 -73.109375 C 64.179688 -74.984375 65.113281 -76.488281 66.5625 -77.625 C 68.019531 -78.769531 69.992188 -79.34375 72.484375 -79.34375 Z M 41.3125 -14.1875 C 45.882812 -14.1875 50.300781 -15.195312 54.5625 -17.21875 C 58.820312 -19.25 61.835938 -22.238281 63.609375 -26.1875 L 63.609375 -53.15625 C 61.628906 -57 58.664062 -59.957031 54.71875 -62.03125 C 50.769531 -64.113281 46.769531 -65.15625 42.71875 -65.15625 C 36.164062 -65.15625 30.890625 -62.765625 26.890625 -57.984375 C 22.890625 -53.210938 20.890625 -47.132812 20.890625 -39.75 C 20.890625 -32.0625 22.757812 -25.878906 26.5 -21.203125 C 30.238281 -16.523438 35.175781 -14.1875 41.3125 -14.1875 Z M 41.3125 -14.1875 "/></g></g></g><g fill="#373643" fill-opacity="1"><g transform="translate(246.750447, 134.611981)"><g><path d="M 23.234375 -7.796875 C 23.234375 -5.710938 22.375 -3.890625 20.65625 -2.328125 C 18.9375 -0.773438 16.832031 0 14.34375 0 C 11.738281 0 9.601562 -0.773438 7.9375 -2.328125 C 6.28125 -3.890625 5.453125 -5.710938 5.453125 -7.796875 L 5.453125 -93.0625 C 5.453125 -95.144531 6.28125 -96.960938 7.9375 -98.515625 C 9.601562 -100.078125 11.738281 -100.859375 14.34375 -100.859375 C 16.832031 -100.859375 18.9375 -100.078125 20.65625 -98.515625 C 22.375 -96.960938 23.234375 -95.144531 23.234375 -93.0625 Z M 23.234375 -7.796875 "/></g></g></g><g fill="#373643" fill-opacity="1"><g transform="translate(27.599906, 178.516402)"><g><path d="M 7.703125 0.15625 C 7.453125 0.300781 7.195312 0.332031 6.9375 0.25 C 6.6875 0.164062 6.5 0 6.375 -0.25 C 6.226562 -0.5 6.195312 -0.75 6.28125 -1 C 6.363281 -1.257812 6.523438 -1.460938 6.765625 -1.609375 C 8.398438 -2.453125 9.820312 -3.5 11.03125 -4.75 C 12.25 -6 13.21875 -7.367188 13.9375 -8.859375 C 14.664062 -10.347656 15.09375 -11.890625 15.21875 -13.484375 L 5.140625 -13.484375 C 4.867188 -13.484375 4.632812 -13.570312 4.4375 -13.75 C 4.238281 -13.9375 4.140625 -14.164062 4.140625 -14.4375 C 4.140625 -14.726562 4.238281 -14.96875 4.4375 -15.15625 C 4.632812 -15.34375 4.867188 -15.4375 5.140625 -15.4375 L 25.8125 -15.4375 C 26.101562 -15.4375 26.34375 -15.34375 26.53125 -15.15625 C 26.71875 -14.96875 26.8125 -14.726562 26.8125 -14.4375 C 26.8125 -14.164062 26.71875 -13.9375 26.53125 -13.75 C 26.34375 -13.570312 26.101562 -13.484375 25.8125 -13.484375 L 17.15625 -13.484375 C 17.03125 -11.648438 16.5625 -9.867188 15.75 -8.140625 C 14.9375 -6.421875 13.847656 -4.84375 12.484375 -3.40625 C 11.128906 -1.976562 9.535156 -0.789062 7.703125 0.15625 Z M 8.8125 -19.875 C 8.539062 -19.875 8.304688 -19.972656 8.109375 -20.171875 C 7.921875 -20.367188 7.828125 -20.601562 7.828125 -20.875 C 7.828125 -21.144531 7.921875 -21.367188 8.109375 -21.546875 C 8.304688 -21.734375 8.539062 -21.828125 8.8125 -21.828125 L 22.484375 -21.828125 C 22.765625 -21.828125 23 -21.734375 23.1875 -21.546875 C 23.375 -21.367188 23.46875 -21.144531 23.46875 -20.875 C 23.46875 -20.601562 23.375 -20.367188 23.1875 -20.171875 C 23 -19.972656 22.765625 -19.875 22.484375 -19.875 Z M 8.8125 -19.875 "/></g></g></g><g fill="#373643" fill-opacity="1"><g transform="translate(57.323765, 178.516402)"><g><path d="M 16.765625 1.484375 C 16.535156 1.484375 16.332031 1.394531 16.15625 1.21875 C 15.976562 1.039062 15.890625 0.832031 15.890625 0.59375 L 15.890625 -10.046875 C 14.773438 -9.035156 13.601562 -8.050781 12.375 -7.09375 C 11.15625 -6.132812 9.9375 -5.285156 8.71875 -4.546875 C 8.507812 -4.421875 8.285156 -4.390625 8.046875 -4.453125 C 7.816406 -4.515625 7.640625 -4.648438 7.515625 -4.859375 C 7.390625 -5.054688 7.351562 -5.273438 7.40625 -5.515625 C 7.457031 -5.753906 7.585938 -5.9375 7.796875 -6.0625 C 9.296875 -6.945312 10.765625 -7.96875 12.203125 -9.125 C 13.648438 -10.28125 14.988281 -11.488281 16.21875 -12.75 C 17.445312 -14.019531 18.472656 -15.242188 19.296875 -16.421875 C 19.460938 -16.628906 19.65625 -16.757812 19.875 -16.8125 C 20.101562 -16.863281 20.320312 -16.816406 20.53125 -16.671875 C 20.738281 -16.523438 20.867188 -16.332031 20.921875 -16.09375 C 20.972656 -15.851562 20.914062 -15.632812 20.75 -15.4375 C 19.945312 -14.300781 18.914062 -13.082031 17.65625 -11.78125 L 17.65625 0.59375 C 17.65625 0.832031 17.566406 1.039062 17.390625 1.21875 C 17.210938 1.394531 17.003906 1.484375 16.765625 1.484375 Z M 16.765625 1.484375 "/></g></g></g><g fill="#373643" fill-opacity="1"><g transform="translate(87.047625, 178.516402)"><g><path d="M 5.6875 -10.578125 C 5.414062 -10.578125 5.179688 -10.675781 4.984375 -10.875 C 4.796875 -11.082031 4.703125 -11.320312 4.703125 -11.59375 C 4.703125 -11.863281 4.796875 -12.09375 4.984375 -12.28125 C 5.179688 -12.476562 5.414062 -12.578125 5.6875 -12.578125 L 25.265625 -12.578125 C 25.535156 -12.578125 25.765625 -12.476562 25.953125 -12.28125 C 26.148438 -12.09375 26.25 -11.863281 26.25 -11.59375 C 26.25 -11.320312 26.148438 -11.082031 25.953125 -10.875 C 25.765625 -10.675781 25.535156 -10.578125 25.265625 -10.578125 Z M 5.6875 -10.578125 "/></g></g></g><g fill="#373643" fill-opacity="1"><g transform="translate(116.771481, 178.516402)"><g><path d="M 22.9375 -4.703125 C 20.570312 -3.816406 18.675781 -3.695312 17.25 -4.34375 C 15.832031 -4.988281 15.125 -6.519531 15.125 -8.9375 L 15.125 -18.421875 C 15.125 -18.691406 15.21875 -18.925781 15.40625 -19.125 C 15.601562 -19.320312 15.835938 -19.421875 16.109375 -19.421875 C 16.398438 -19.421875 16.632812 -19.320312 16.8125 -19.125 C 17 -18.925781 17.09375 -18.691406 17.09375 -18.421875 L 17.09375 -8.9375 C 17.09375 -7.488281 17.515625 -6.566406 18.359375 -6.171875 C 19.210938 -5.785156 20.515625 -5.914062 22.265625 -6.5625 C 23.359375 -6.96875 24.425781 -7.394531 25.46875 -7.84375 C 26.507812 -8.300781 27.492188 -8.78125 28.421875 -9.28125 C 28.660156 -9.40625 28.910156 -9.425781 29.171875 -9.34375 C 29.429688 -9.257812 29.625 -9.09375 29.75 -8.84375 C 29.875 -8.59375 29.894531 -8.335938 29.8125 -8.078125 C 29.726562 -7.828125 29.5625 -7.628906 29.3125 -7.484375 C 28.300781 -6.960938 27.257812 -6.46875 26.1875 -6 C 25.113281 -5.539062 24.03125 -5.109375 22.9375 -4.703125 Z M 2.625 -2.78125 C 2.375 -2.675781 2.117188 -2.671875 1.859375 -2.765625 C 1.609375 -2.859375 1.429688 -3.039062 1.328125 -3.3125 C 1.222656 -3.5625 1.21875 -3.8125 1.3125 -4.0625 C 1.40625 -4.320312 1.578125 -4.503906 1.828125 -4.609375 C 3.617188 -5.410156 5.054688 -6.421875 6.140625 -7.640625 C 7.222656 -8.859375 8.003906 -10.242188 8.484375 -11.796875 C 8.972656 -13.347656 9.21875 -15.035156 9.21875 -16.859375 C 9.21875 -17.140625 9.3125 -17.375 9.5 -17.5625 C 9.695312 -17.75 9.929688 -17.84375 10.203125 -17.84375 C 10.492188 -17.84375 10.726562 -17.75 10.90625 -17.5625 C 11.09375 -17.375 11.1875 -17.140625 11.1875 -16.859375 C 11.1875 -13.554688 10.445312 -10.695312 8.96875 -8.28125 C 7.5 -5.875 5.382812 -4.039062 2.625 -2.78125 Z M 2.625 -2.78125 "/></g></g></g><g fill="#373643" fill-opacity="1"><g transform="translate(146.495344, 178.516402)"><g><path d="M 21.28125 0.40625 C 20.289062 -0.394531 19.125 -1.210938 17.78125 -2.046875 C 16.4375 -2.890625 15.054688 -3.695312 13.640625 -4.46875 C 12.234375 -5.238281 10.910156 -5.894531 9.671875 -6.4375 C 9.429688 -6.539062 9.265625 -6.71875 9.171875 -6.96875 C 9.078125 -7.226562 9.082031 -7.492188 9.1875 -7.765625 C 9.3125 -8.003906 9.5 -8.171875 9.75 -8.265625 C 10.007812 -8.359375 10.265625 -8.351562 10.515625 -8.25 C 11.796875 -7.675781 13.164062 -6.984375 14.625 -6.171875 C 16.09375 -5.359375 17.519531 -4.515625 18.90625 -3.640625 C 20.300781 -2.773438 21.503906 -1.941406 22.515625 -1.140625 C 22.734375 -0.972656 22.851562 -0.75 22.875 -0.46875 C 22.894531 -0.195312 22.828125 0.0390625 22.671875 0.25 C 22.503906 0.457031 22.285156 0.578125 22.015625 0.609375 C 21.742188 0.640625 21.5 0.570312 21.28125 0.40625 Z M 18.484375 -10.171875 C 17.992188 -10.503906 17.367188 -10.875 16.609375 -11.28125 C 15.847656 -11.695312 15.03125 -12.109375 14.15625 -12.515625 C 13.289062 -12.929688 12.457031 -13.304688 11.65625 -13.640625 C 10.851562 -13.984375 10.171875 -14.25 9.609375 -14.4375 C 9.347656 -14.539062 9.15625 -14.710938 9.03125 -14.953125 C 8.90625 -15.191406 8.882812 -15.441406 8.96875 -15.703125 C 9.070312 -15.972656 9.238281 -16.175781 9.46875 -16.3125 C 9.707031 -16.445312 9.960938 -16.460938 10.234375 -16.359375 C 10.847656 -16.148438 11.578125 -15.851562 12.421875 -15.46875 C 13.273438 -15.09375 14.15625 -14.6875 15.0625 -14.25 C 15.96875 -13.820312 16.816406 -13.394531 17.609375 -12.96875 C 18.398438 -12.550781 19.054688 -12.175781 19.578125 -11.84375 C 19.796875 -11.695312 19.9375 -11.488281 20 -11.21875 C 20.0625 -10.957031 20.015625 -10.710938 19.859375 -10.484375 C 19.710938 -10.253906 19.503906 -10.109375 19.234375 -10.046875 C 18.960938 -9.984375 18.710938 -10.023438 18.484375 -10.171875 Z M 20.46875 -16.96875 C 20 -17.320312 19.382812 -17.707031 18.625 -18.125 C 17.875 -18.550781 17.078125 -18.984375 16.234375 -19.421875 C 15.390625 -19.867188 14.566406 -20.273438 13.765625 -20.640625 C 12.972656 -21.003906 12.300781 -21.285156 11.75 -21.484375 C 11.5 -21.585938 11.316406 -21.757812 11.203125 -22 C 11.097656 -22.238281 11.082031 -22.492188 11.15625 -22.765625 C 11.257812 -23.023438 11.4375 -23.210938 11.6875 -23.328125 C 11.9375 -23.441406 12.195312 -23.445312 12.46875 -23.34375 C 13.019531 -23.132812 13.710938 -22.832031 14.546875 -22.4375 C 15.378906 -22.050781 16.25 -21.617188 17.15625 -21.140625 C 18.0625 -20.671875 18.910156 -20.207031 19.703125 -19.75 C 20.503906 -19.300781 21.140625 -18.910156 21.609375 -18.578125 C 21.835938 -18.441406 21.976562 -18.234375 22.03125 -17.953125 C 22.082031 -17.671875 22.023438 -17.414062 21.859375 -17.1875 C 21.691406 -16.988281 21.472656 -16.863281 21.203125 -16.8125 C 20.941406 -16.757812 20.695312 -16.8125 20.46875 -16.96875 Z M 20.46875 -16.96875 "/></g></g></g><g fill="#373643" fill-opacity="1"><g transform="translate(176.219206, 178.516402)"><g><path d="M 6 -3.25 C 5.75 -3.25 5.535156 -3.332031 5.359375 -3.5 C 5.191406 -3.675781 5.109375 -3.890625 5.109375 -4.140625 C 5.109375 -4.390625 5.191406 -4.597656 5.359375 -4.765625 C 5.535156 -4.929688 5.75 -5.015625 6 -5.015625 L 18.1875 -5.015625 C 18.78125 -6.679688 19.101562 -7.945312 19.15625 -8.8125 C 19.207031 -9.675781 19 -10.265625 18.53125 -10.578125 C 18.070312 -10.890625 17.359375 -11.046875 16.390625 -11.046875 L 9.671875 -11.046875 C 9.429688 -11.046875 9.222656 -11.128906 9.046875 -11.296875 C 8.867188 -11.472656 8.78125 -11.6875 8.78125 -11.9375 C 8.78125 -12.1875 8.867188 -12.394531 9.046875 -12.5625 C 9.222656 -12.738281 9.429688 -12.828125 9.671875 -12.828125 L 16.390625 -12.828125 C 18.578125 -12.828125 19.972656 -12.222656 20.578125 -11.015625 C 21.179688 -9.816406 20.988281 -7.816406 20 -5.015625 L 25.046875 -5.015625 C 25.296875 -5.015625 25.503906 -4.929688 25.671875 -4.765625 C 25.847656 -4.597656 25.9375 -4.390625 25.9375 -4.140625 C 25.9375 -3.890625 25.847656 -3.675781 25.671875 -3.5 C 25.503906 -3.332031 25.296875 -3.25 25.046875 -3.25 Z M 6 -3.25 "/></g></g></g><g fill="#373643" fill-opacity="1"><g transform="translate(205.943069, 178.516402)"><g><path d="M 5.6875 -10.578125 C 5.414062 -10.578125 5.179688 -10.675781 4.984375 -10.875 C 4.796875 -11.082031 4.703125 -11.320312 4.703125 -11.59375 C 4.703125 -11.863281 4.796875 -12.09375 4.984375 -12.28125 C 5.179688 -12.476562 5.414062 -12.578125 5.6875 -12.578125 L 25.265625 -12.578125 C 25.535156 -12.578125 25.765625 -12.476562 25.953125 -12.28125 C 26.148438 -12.09375 26.25 -11.863281 26.25 -11.59375 C 26.25 -11.320312 26.148438 -11.082031 25.953125 -10.875 C 25.765625 -10.675781 25.535156 -10.578125 25.265625 -10.578125 Z M 5.6875 -10.578125 "/></g></g></g><g fill="#373643" fill-opacity="1"><g transform="translate(235.666919, 178.516402)"><g><path d="M 7.359375 -0.921875 C 7.085938 -0.835938 6.832031 -0.859375 6.59375 -0.984375 C 6.363281 -1.109375 6.195312 -1.304688 6.09375 -1.578125 C 6.007812 -1.847656 6.03125 -2.097656 6.15625 -2.328125 C 6.28125 -2.566406 6.472656 -2.726562 6.734375 -2.8125 C 8.390625 -3.351562 10.082031 -4.082031 11.8125 -5 C 13.539062 -5.914062 15.21875 -6.960938 16.84375 -8.140625 C 18.476562 -9.328125 19.972656 -10.59375 21.328125 -11.9375 C 22.691406 -13.28125 23.828125 -14.617188 24.734375 -15.953125 C 24.898438 -16.179688 25.113281 -16.328125 25.375 -16.390625 C 25.644531 -16.453125 25.894531 -16.398438 26.125 -16.234375 C 26.351562 -16.085938 26.492188 -15.875 26.546875 -15.59375 C 26.597656 -15.320312 26.539062 -15.070312 26.375 -14.84375 C 25.445312 -13.457031 24.253906 -12.054688 22.796875 -10.640625 C 21.347656 -9.234375 19.753906 -7.890625 18.015625 -6.609375 C 16.273438 -5.335938 14.488281 -4.207031 12.65625 -3.21875 C 10.832031 -2.226562 9.066406 -1.460938 7.359375 -0.921875 Z M 9.4375 -10.890625 C 9.082031 -11.148438 8.613281 -11.460938 8.03125 -11.828125 C 7.457031 -12.191406 6.867188 -12.539062 6.265625 -12.875 C 5.671875 -13.21875 5.148438 -13.492188 4.703125 -13.703125 C 4.453125 -13.804688 4.285156 -13.988281 4.203125 -14.25 C 4.117188 -14.519531 4.140625 -14.78125 4.265625 -15.03125 C 4.390625 -15.28125 4.578125 -15.441406 4.828125 -15.515625 C 5.085938 -15.597656 5.34375 -15.582031 5.59375 -15.46875 C 6.09375 -15.257812 6.671875 -14.960938 7.328125 -14.578125 C 7.984375 -14.191406 8.617188 -13.804688 9.234375 -13.421875 C 9.859375 -13.046875 10.347656 -12.71875 10.703125 -12.4375 C 10.929688 -12.269531 11.050781 -12.046875 11.0625 -11.765625 C 11.082031 -11.484375 11.003906 -11.234375 10.828125 -11.015625 C 10.660156 -10.804688 10.441406 -10.695312 10.171875 -10.6875 C 9.898438 -10.675781 9.65625 -10.742188 9.4375 -10.890625 Z M 12.796875 -16.390625 C 12.472656 -16.679688 12.035156 -17.015625 11.484375 -17.390625 C 10.941406 -17.773438 10.378906 -18.144531 9.796875 -18.5 C 9.222656 -18.863281 8.707031 -19.171875 8.25 -19.421875 C 8.007812 -19.566406 7.851562 -19.769531 7.78125 -20.03125 C 7.707031 -20.300781 7.742188 -20.550781 7.890625 -20.78125 C 8.023438 -21.03125 8.222656 -21.1875 8.484375 -21.25 C 8.742188 -21.320312 9 -21.289062 9.25 -21.15625 C 9.695312 -20.90625 10.238281 -20.578125 10.875 -20.171875 C 11.519531 -19.773438 12.140625 -19.363281 12.734375 -18.9375 C 13.335938 -18.519531 13.8125 -18.15625 14.15625 -17.84375 C 14.382812 -17.675781 14.5 -17.453125 14.5 -17.171875 C 14.5 -16.898438 14.40625 -16.660156 14.21875 -16.453125 C 14.039062 -16.242188 13.816406 -16.132812 13.546875 -16.125 C 13.273438 -16.113281 13.023438 -16.203125 12.796875 -16.390625 Z M 25.78125 -20.90625 C 25.644531 -20.757812 25.457031 -20.691406 25.21875 -20.703125 C 24.976562 -20.710938 24.773438 -20.800781 24.609375 -20.96875 C 24.328125 -21.289062 23.925781 -21.679688 23.40625 -22.140625 C 22.894531 -22.597656 22.460938 -22.957031 22.109375 -23.21875 C 21.941406 -23.363281 21.835938 -23.539062 21.796875 -23.75 C 21.753906 -23.957031 21.804688 -24.148438 21.953125 -24.328125 C 22.097656 -24.515625 22.28125 -24.613281 22.5 -24.625 C 22.71875 -24.632812 22.914062 -24.578125 23.09375 -24.453125 C 23.34375 -24.296875 23.632812 -24.070312 23.96875 -23.78125 C 24.3125 -23.488281 24.65625 -23.191406 25 -22.890625 C 25.34375 -22.597656 25.613281 -22.335938 25.8125 -22.109375 C 25.976562 -21.941406 26.054688 -21.738281 26.046875 -21.5 C 26.035156 -21.269531 25.945312 -21.070312 25.78125 -20.90625 Z M 23.34375 -18.40625 C 23.15625 -18.257812 22.945312 -18.195312 22.71875 -18.21875 C 22.5 -18.238281 22.316406 -18.328125 22.171875 -18.484375 C 21.878906 -18.835938 21.488281 -19.253906 21 -19.734375 C 20.519531 -20.222656 20.109375 -20.613281 19.765625 -20.90625 C 19.597656 -21.050781 19.503906 -21.226562 19.484375 -21.4375 C 19.460938 -21.65625 19.523438 -21.847656 19.671875 -22.015625 C 19.828125 -22.179688 20.015625 -22.269531 20.234375 -22.28125 C 20.453125 -22.289062 20.644531 -22.222656 20.8125 -22.078125 C 21.039062 -21.910156 21.316406 -21.671875 21.640625 -21.359375 C 21.972656 -21.054688 22.300781 -20.738281 22.625 -20.40625 C 22.957031 -20.070312 23.21875 -19.796875 23.40625 -19.578125 C 23.570312 -19.410156 23.644531 -19.210938 23.625 -18.984375 C 23.601562 -18.753906 23.507812 -18.5625 23.34375 -18.40625 Z M 23.34375 -18.40625 "/></g></g></g><g fill="#373643" fill-opacity="1"><g transform="translate(265.390782, 178.516402)"><g><path d="M 11.40625 0.6875 C 11.195312 0.78125 10.972656 0.785156 10.734375 0.703125 C 10.503906 0.628906 10.335938 0.476562 10.234375 0.25 C 10.128906 0.0195312 10.117188 -0.203125 10.203125 -0.421875 C 10.285156 -0.648438 10.429688 -0.816406 10.640625 -0.921875 C 12.828125 -1.972656 14.628906 -3.128906 16.046875 -4.390625 C 17.472656 -5.648438 18.597656 -7.097656 19.421875 -8.734375 C 20.242188 -10.367188 20.84375 -12.269531 21.21875 -14.4375 C 21.257812 -14.664062 21.378906 -14.851562 21.578125 -15 C 21.785156 -15.144531 22.003906 -15.195312 22.234375 -15.15625 C 22.484375 -15.113281 22.671875 -14.992188 22.796875 -14.796875 C 22.929688 -14.597656 22.976562 -14.375 22.9375 -14.125 C 22.550781 -11.800781 21.890625 -9.726562 20.953125 -7.90625 C 20.015625 -6.09375 18.757812 -4.484375 17.1875 -3.078125 C 15.625 -1.679688 13.695312 -0.425781 11.40625 0.6875 Z M 15.828125 -9.40625 C 15.597656 -9.320312 15.375 -9.332031 15.15625 -9.4375 C 14.945312 -9.550781 14.800781 -9.722656 14.71875 -9.953125 C 14.445312 -10.679688 14.148438 -11.40625 13.828125 -12.125 C 13.515625 -12.84375 13.210938 -13.460938 12.921875 -13.984375 C 12.816406 -14.203125 12.789062 -14.429688 12.84375 -14.671875 C 12.894531 -14.910156 13.023438 -15.09375 13.234375 -15.21875 C 13.460938 -15.34375 13.691406 -15.378906 13.921875 -15.328125 C 14.160156 -15.273438 14.332031 -15.132812 14.4375 -14.90625 C 14.769531 -14.320312 15.125 -13.601562 15.5 -12.75 C 15.882812 -11.894531 16.179688 -11.148438 16.390625 -10.515625 C 16.472656 -10.285156 16.457031 -10.0625 16.34375 -9.84375 C 16.226562 -9.632812 16.054688 -9.488281 15.828125 -9.40625 Z M 11.046875 -8.15625 C 10.835938 -8.082031 10.613281 -8.082031 10.375 -8.15625 C 10.132812 -8.238281 9.960938 -8.394531 9.859375 -8.625 C 9.554688 -9.320312 9.21875 -10.015625 8.84375 -10.703125 C 8.46875 -11.398438 8.109375 -12 7.765625 -12.5 C 7.617188 -12.695312 7.5625 -12.914062 7.59375 -13.15625 C 7.625 -13.394531 7.742188 -13.585938 7.953125 -13.734375 C 8.148438 -13.878906 8.367188 -13.929688 8.609375 -13.890625 C 8.847656 -13.847656 9.039062 -13.722656 9.1875 -13.515625 C 9.570312 -12.953125 9.976562 -12.28125 10.40625 -11.5 C 10.832031 -10.71875 11.195312 -10 11.5 -9.34375 C 11.601562 -9.113281 11.609375 -8.882812 11.515625 -8.65625 C 11.421875 -8.425781 11.265625 -8.257812 11.046875 -8.15625 Z M 11.046875 -8.15625 "/></g></g></g><g fill="#373643" fill-opacity="1"><g transform="translate(295.114644, 178.516402)"><g><path d="M 7.515625 0.375 C 7.242188 0.476562 6.976562 0.484375 6.71875 0.390625 C 6.46875 0.296875 6.289062 0.113281 6.1875 -0.15625 C 6.082031 -0.40625 6.082031 -0.65625 6.1875 -0.90625 C 6.289062 -1.164062 6.460938 -1.347656 6.703125 -1.453125 C 10.296875 -3.015625 13.390625 -4.972656 15.984375 -7.328125 C 18.578125 -9.679688 20.648438 -12.382812 22.203125 -15.4375 C 22.710938 -16.4375 22.796875 -17.210938 22.453125 -17.765625 C 22.117188 -18.328125 21.34375 -18.609375 20.125 -18.609375 L 15.40625 -18.609375 C 14.394531 -17.253906 13.25 -15.921875 11.96875 -14.609375 C 10.6875 -13.296875 9.394531 -12.1875 8.09375 -11.28125 C 7.875 -11.132812 7.628906 -11.082031 7.359375 -11.125 C 7.085938 -11.164062 6.867188 -11.300781 6.703125 -11.53125 C 6.566406 -11.757812 6.519531 -12.007812 6.5625 -12.28125 C 6.601562 -12.5625 6.734375 -12.773438 6.953125 -12.921875 C 8.210938 -13.785156 9.421875 -14.796875 10.578125 -15.953125 C 11.734375 -17.109375 12.769531 -18.316406 13.6875 -19.578125 C 14.601562 -20.847656 15.328125 -22.070312 15.859375 -23.25 C 15.960938 -23.519531 16.144531 -23.703125 16.40625 -23.796875 C 16.664062 -23.890625 16.925781 -23.882812 17.1875 -23.78125 C 17.4375 -23.65625 17.609375 -23.460938 17.703125 -23.203125 C 17.796875 -22.953125 17.789062 -22.703125 17.6875 -22.453125 C 17.394531 -21.847656 17.066406 -21.21875 16.703125 -20.5625 L 20.125 -20.5625 C 22.226562 -20.5625 23.625 -20.015625 24.3125 -18.921875 C 25.007812 -17.828125 24.894531 -16.363281 23.96875 -14.53125 C 22.351562 -11.351562 20.148438 -8.488281 17.359375 -5.9375 C 14.566406 -3.382812 11.285156 -1.28125 7.515625 0.375 Z M 7.515625 0.375 "/></g></g></g><g fill="#373643" fill-opacity="1"><g transform="translate(324.838507, 178.516402)"><g><path d="M 5.15625 -1.296875 C 4.914062 -1.171875 4.664062 -1.15625 4.40625 -1.25 C 4.144531 -1.34375 3.953125 -1.515625 3.828125 -1.765625 C 3.710938 -2.015625 3.695312 -2.265625 3.78125 -2.515625 C 3.875 -2.773438 4.046875 -2.96875 4.296875 -3.09375 C 6.335938 -4.082031 8.257812 -5.238281 10.0625 -6.5625 C 11.863281 -7.894531 13.488281 -9.347656 14.9375 -10.921875 C 16.394531 -12.503906 17.609375 -14.148438 18.578125 -15.859375 C 19.140625 -16.828125 19.226562 -17.585938 18.84375 -18.140625 C 18.46875 -18.703125 17.640625 -18.984375 16.359375 -18.984375 L 7.515625 -18.984375 C 7.242188 -18.984375 7.003906 -19.082031 6.796875 -19.28125 C 6.597656 -19.476562 6.5 -19.707031 6.5 -19.96875 C 6.5 -20.257812 6.597656 -20.5 6.796875 -20.6875 C 7.003906 -20.875 7.242188 -20.96875 7.515625 -20.96875 L 16.359375 -20.96875 C 17.859375 -20.96875 19.007812 -20.695312 19.8125 -20.15625 C 20.625 -19.625 21.070312 -18.898438 21.15625 -17.984375 C 21.238281 -17.066406 20.945312 -16.03125 20.28125 -14.875 C 19.625 -13.695312 18.851562 -12.5625 17.96875 -11.46875 C 18.726562 -10.875 19.515625 -10.207031 20.328125 -9.46875 C 21.140625 -8.738281 21.941406 -7.992188 22.734375 -7.234375 C 23.535156 -6.472656 24.273438 -5.75 24.953125 -5.0625 C 25.628906 -4.382812 26.207031 -3.789062 26.6875 -3.28125 C 26.894531 -3.070312 27 -2.828125 27 -2.546875 C 27 -2.273438 26.894531 -2.046875 26.6875 -1.859375 C 26.476562 -1.671875 26.238281 -1.578125 25.96875 -1.578125 C 25.707031 -1.578125 25.472656 -1.679688 25.265625 -1.890625 C 24.785156 -2.359375 24.210938 -2.9375 23.546875 -3.625 C 22.878906 -4.320312 22.148438 -5.054688 21.359375 -5.828125 C 20.578125 -6.597656 19.796875 -7.347656 19.015625 -8.078125 C 18.234375 -8.816406 17.484375 -9.472656 16.765625 -10.046875 C 15.191406 -8.316406 13.410156 -6.6875 11.421875 -5.15625 C 9.429688 -3.632812 7.34375 -2.347656 5.15625 -1.296875 Z M 5.15625 -1.296875 "/></g></g></g><g fill="#373643" fill-opacity="1"><g transform="translate(354.562369, 178.516402)"><g><path d="M 7.515625 0.375 C 7.242188 0.476562 6.976562 0.484375 6.71875 0.390625 C 6.46875 0.296875 6.289062 0.113281 6.1875 -0.15625 C 6.082031 -0.40625 6.082031 -0.65625 6.1875 -0.90625 C 6.289062 -1.164062 6.460938 -1.347656 6.703125 -1.453125 C 10.296875 -3.015625 13.390625 -4.972656 15.984375 -7.328125 C 18.578125 -9.679688 20.648438 -12.382812 22.203125 -15.4375 C 22.710938 -16.4375 22.796875 -17.210938 22.453125 -17.765625 C 22.117188 -18.328125 21.34375 -18.609375 20.125 -18.609375 L 15.40625 -18.609375 C 14.394531 -17.253906 13.25 -15.921875 11.96875 -14.609375 C 10.6875 -13.296875 9.394531 -12.1875 8.09375 -11.28125 C 7.875 -11.132812 7.628906 -11.082031 7.359375 -11.125 C 7.085938 -11.164062 6.867188 -11.300781 6.703125 -11.53125 C 6.566406 -11.757812 6.519531 -12.007812 6.5625 -12.28125 C 6.601562 -12.5625 6.734375 -12.773438 6.953125 -12.921875 C 8.210938 -13.785156 9.421875 -14.796875 10.578125 -15.953125 C 11.734375 -17.109375 12.769531 -18.316406 13.6875 -19.578125 C 14.601562 -20.847656 15.328125 -22.070312 15.859375 -23.25 C 15.960938 -23.519531 16.144531 -23.703125 16.40625 -23.796875 C 16.664062 -23.890625 16.925781 -23.882812 17.1875 -23.78125 C 17.4375 -23.65625 17.609375 -23.460938 17.703125 -23.203125 C 17.796875 -22.953125 17.789062 -22.703125 17.6875 -22.453125 C 17.394531 -21.847656 17.066406 -21.21875 16.703125 -20.5625 L 20.125 -20.5625 C 22.226562 -20.5625 23.625 -20.015625 24.3125 -18.921875 C 25.007812 -17.828125 24.894531 -16.363281 23.96875 -14.53125 C 22.351562 -11.351562 20.148438 -8.488281 17.359375 -5.9375 C 14.566406 -3.382812 11.285156 -1.28125 7.515625 0.375 Z M 7.515625 0.375 "/></g></g></g><g fill="#373643" fill-opacity="1"><g transform="translate(384.286232, 178.516402)"><g><path d="M 5.6875 -10.578125 C 5.414062 -10.578125 5.179688 -10.675781 4.984375 -10.875 C 4.796875 -11.082031 4.703125 -11.320312 4.703125 -11.59375 C 4.703125 -11.863281 4.796875 -12.09375 4.984375 -12.28125 C 5.179688 -12.476562 5.414062 -12.578125 5.6875 -12.578125 L 25.265625 -12.578125 C 25.535156 -12.578125 25.765625 -12.476562 25.953125 -12.28125 C 26.148438 -12.09375 26.25 -11.863281 26.25 -11.59375 C 26.25 -11.320312 26.148438 -11.082031 25.953125 -10.875 C 25.765625 -10.675781 25.535156 -10.578125 25.265625 -10.578125 Z M 5.6875 -10.578125 "/></g></g></g><g fill="#373643" fill-opacity="1"><g transform="translate(414.010095, 178.516402)"><g><path d="M 22.9375 -4.703125 C 20.570312 -3.816406 18.675781 -3.695312 17.25 -4.34375 C 15.832031 -4.988281 15.125 -6.519531 15.125 -8.9375 L 15.125 -18.421875 C 15.125 -18.691406 15.21875 -18.925781 15.40625 -19.125 C 15.601562 -19.320312 15.835938 -19.421875 16.109375 -19.421875 C 16.398438 -19.421875 16.632812 -19.320312 16.8125 -19.125 C 17 -18.925781 17.09375 -18.691406 17.09375 -18.421875 L 17.09375 -8.9375 C 17.09375 -7.488281 17.515625 -6.566406 18.359375 -6.171875 C 19.210938 -5.785156 20.515625 -5.914062 22.265625 -6.5625 C 23.359375 -6.96875 24.425781 -7.394531 25.46875 -7.84375 C 26.507812 -8.300781 27.492188 -8.78125 28.421875 -9.28125 C 28.660156 -9.40625 28.910156 -9.425781 29.171875 -9.34375 C 29.429688 -9.257812 29.625 -9.09375 29.75 -8.84375 C 29.875 -8.59375 29.894531 -8.335938 29.8125 -8.078125 C 29.726562 -7.828125 29.5625 -7.628906 29.3125 -7.484375 C 28.300781 -6.960938 27.257812 -6.46875 26.1875 -6 C 25.113281 -5.539062 24.03125 -5.109375 22.9375 -4.703125 Z M 2.625 -2.78125 C 2.375 -2.675781 2.117188 -2.671875 1.859375 -2.765625 C 1.609375 -2.859375 1.429688 -3.039062 1.328125 -3.3125 C 1.222656 -3.5625 1.21875 -3.8125 1.3125 -4.0625 C 1.40625 -4.320312 1.578125 -4.503906 1.828125 -4.609375 C 3.617188 -5.410156 5.054688 -6.421875 6.140625 -7.640625 C 7.222656 -8.859375 8.003906 -10.242188 8.484375 -11.796875 C 8.972656 -13.347656 9.21875 -15.035156 9.21875 -16.859375 C 9.21875 -17.140625 9.3125 -17.375 9.5 -17.5625 C 9.695312 -17.75 9.929688 -17.84375 10.203125 -17.84375 C 10.492188 -17.84375 10.726562 -17.75 10.90625 -17.5625 C 11.09375 -17.375 11.1875 -17.140625 11.1875 -16.859375 C 11.1875 -13.554688 10.445312 -10.695312 8.96875 -8.28125 C 7.5 -5.875 5.382812 -4.039062 2.625 -2.78125 Z M 2.625 -2.78125 "/></g></g></g></svg>