<svg xmlns="http://www.w3.org/2000/svg" xmlns:xlink="http://www.w3.org/1999/xlink" width="700" zoomAndPan="magnify" viewBox="0 0 525 187.499995" height="250" preserveAspectRatio="xMidYMid meet" version="1.2"><defs><clipPath id="d5cb0e23bb"><path d="M 451 15 L 514 15 L 514 81 L 451 81 Z M 451 15 "/></clipPath><clipPath id="874d4d5d8c"><path d="M 438.578125 24.417969 L 484.667969 -13.746094 L 541.917969 55.386719 L 495.828125 93.550781 Z M 438.578125 24.417969 "/></clipPath><clipPath id="967dfd1e64"><path d="M 438.578125 24.417969 L 484.667969 -13.746094 L 541.917969 55.386719 L 495.828125 93.550781 Z M 438.578125 24.417969 "/></clipPath><clipPath id="026628e138"><path d="M 434 41 L 484 41 L 484 93 L 434 93 Z M 434 41 "/></clipPath><clipPath id="6f6279b027"><path d="M 424.609375 48.667969 L 460.90625 18.609375 L 505.753906 72.765625 L 469.457031 102.820312 Z M 424.609375 48.667969 "/></clipPath><clipPath id="f673e13065"><path d="M 424.609375 48.667969 L 460.90625 18.609375 L 505.753906 72.765625 L 469.457031 102.820312 Z M 424.609375 48.667969 "/></clipPath><clipPath id="8d705d7fb4"><path d="M 282.023438 11.042969 L 451.074219 11.042969 L 451.074219 130 L 282.023438 130 Z M 282.023438 11.042969 "/></clipPath><clipPath id="8e2e6340fb"><path d="M 363 61 L 370 61 L 370 144.9375 L 363 144.9375 Z M 363 61 "/></clipPath></defs><g id="6bb608a303"><g clip-rule="nonzero" clip-path="url(#d5cb0e23bb)"><g clip-rule="nonzero" clip-path="url(#874d4d5d8c)"><g clip-rule="nonzero" clip-path="url(#967dfd1e64)"><path style=" stroke:none;fill-rule:nonzero;fill:#18cb96;fill-opacity:1;" d="M 513.605469 21.199219 L 460.367188 15.917969 C 450.082031 14.898438 447.25 34.886719 459.445312 35.882812 L 492.605469 38.589844 L 488.246094 71.867188 C 486.921875 82 506.707031 84.15625 507.835938 73.847656 Z M 513.605469 21.199219 "/></g></g></g><g clip-rule="nonzero" clip-path="url(#026628e138)"><g clip-rule="nonzero" clip-path="url(#6f6279b027)"><g clip-rule="nonzero" clip-path="url(#f673e13065)"><path style=" stroke:none;fill-rule:nonzero;fill:#18cb96;fill-opacity:1;" d="M 483.519531 46.136719 L 441.71875 41.992188 C 433.644531 41.191406 431.417969 56.886719 440.992188 57.667969 L 467.027344 59.792969 L 463.609375 85.921875 C 462.566406 93.878906 478.101562 95.570312 478.988281 87.476562 Z M 483.519531 46.136719 "/></g></g></g><g style="fill:#000000;fill-opacity:1;"><g transform="translate(11.744362, 130.983212)"><path style="stroke:none" d="M 42.171875 -14.5625 C 44.523438 -15.894531 46.644531 -16.359375 48.53125 -15.953125 C 50.425781 -15.546875 51.960938 -14.648438 53.140625 -13.265625 C 54.316406 -11.878906 54.90625 -10.269531 54.90625 -8.4375 C 54.90625 -7.101562 54.492188 -5.769531 53.671875 -4.4375 C 52.859375 -3.113281 51.582031 -1.992188 49.84375 -1.078125 C 47.59375 0.148438 45.546875 0.890625 43.703125 1.140625 C 41.867188 1.398438 39.722656 1.53125 37.265625 1.53125 C 30.617188 1.53125 25.503906 0.148438 21.921875 -2.609375 C 18.347656 -5.367188 15.894531 -8.945312 14.5625 -13.34375 C 13.238281 -17.738281 12.578125 -22.390625 12.578125 -27.296875 L 12.578125 -63.484375 L 6.75 -63.484375 C 3.882812 -63.484375 1.757812 -64.25 0.375 -65.78125 C -1 -67.320312 -1.6875 -68.960938 -1.6875 -70.703125 C -1.6875 -72.535156 -0.972656 -74.21875 0.453125 -75.75 C 1.890625 -77.289062 3.988281 -78.0625 6.75 -78.0625 L 12.578125 -78.0625 L 12.578125 -91.25 C 12.578125 -93.90625 13.445312 -95.894531 15.1875 -97.21875 C 16.925781 -98.550781 18.914062 -99.21875 21.15625 -99.21875 C 23.3125 -99.21875 25.304688 -98.550781 27.140625 -97.21875 C 28.984375 -95.894531 29.90625 -93.90625 29.90625 -91.25 L 29.90625 -78.0625 L 41.859375 -78.0625 C 44.523438 -78.0625 46.570312 -77.289062 48 -75.75 C 49.4375 -74.21875 50.15625 -72.535156 50.15625 -70.703125 C 50.15625 -68.859375 49.4375 -67.191406 48 -65.703125 C 46.570312 -64.222656 44.523438 -63.484375 41.859375 -63.484375 L 29.90625 -63.484375 L 29.90625 -27.296875 C 29.90625 -25.046875 30.054688 -22.875 30.359375 -20.78125 C 30.671875 -18.6875 31.363281 -16.945312 32.4375 -15.5625 C 33.507812 -14.1875 35.117188 -13.5 37.265625 -13.5 C 38.085938 -13.5 38.984375 -13.625 39.953125 -13.875 C 40.921875 -14.132812 41.660156 -14.363281 42.171875 -14.5625 Z M 42.171875 -14.5625 "/></g></g><g style="fill:#000000;fill-opacity:1;"><g transform="translate(64.956131, 130.983212)"><path style="stroke:none" d="M 43.859375 -13.65625 C 46.828125 -13.65625 49.738281 -14.0625 52.59375 -14.875 C 55.457031 -15.695312 58.117188 -17.078125 60.578125 -19.015625 C 62.929688 -21.160156 65.234375 -22.15625 67.484375 -22 C 69.734375 -21.851562 71.597656 -21.035156 73.078125 -19.546875 C 74.554688 -18.066406 75.296875 -16.226562 75.296875 -14.03125 C 75.296875 -11.832031 74.222656 -9.710938 72.078125 -7.671875 C 68.503906 -4.191406 64.257812 -1.757812 59.34375 -0.375 C 54.4375 1 49.429688 1.632812 44.328125 1.53125 C 36.347656 1.53125 29.316406 -0.101562 23.234375 -3.375 C 17.148438 -6.644531 12.394531 -11.191406 8.96875 -17.015625 C 5.539062 -22.847656 3.828125 -29.597656 3.828125 -37.265625 C 3.828125 -45.648438 5.460938 -53.007812 8.734375 -59.34375 C 12.015625 -65.6875 16.644531 -70.644531 22.625 -74.21875 C 28.601562 -77.800781 35.679688 -79.59375 43.859375 -79.59375 C 52.035156 -79.59375 58.988281 -77.929688 64.71875 -74.609375 C 70.445312 -71.285156 74.816406 -66.632812 77.828125 -60.65625 C 80.847656 -54.675781 82.359375 -47.695312 82.359375 -39.71875 C 82.359375 -37.164062 81.84375 -34.992188 80.8125 -33.203125 C 79.789062 -31.410156 77.082031 -30.515625 72.6875 -30.515625 L 21.625 -30.515625 C 23.050781 -25.503906 25.757812 -21.441406 29.75 -18.328125 C 33.738281 -15.210938 38.441406 -13.65625 43.859375 -13.65625 Z M 44.015625 -64.40625 C 38.085938 -64.40625 33.128906 -62.539062 29.140625 -58.8125 C 25.148438 -55.082031 22.59375 -50.203125 21.46875 -44.171875 L 66.09375 -44.171875 C 65.582031 -50.203125 63.585938 -55.082031 60.109375 -58.8125 C 56.640625 -62.539062 51.273438 -64.40625 44.015625 -64.40625 Z M 44.015625 -64.40625 "/></g></g><g style="fill:#000000;fill-opacity:1;"><g transform="translate(154.052233, 130.983212)"><path style="stroke:none" d="M 71.3125 -78.0625 C 73.96875 -78.0625 76.085938 -77.316406 77.671875 -75.828125 C 79.253906 -74.347656 80.046875 -72.429688 80.046875 -70.078125 L 80.046875 -7.96875 C 80.046875 -5.625 79.253906 -3.707031 77.671875 -2.21875 C 76.085938 -0.738281 73.96875 0 71.3125 0 C 68.757812 0 66.765625 -0.585938 65.328125 -1.765625 C 63.898438 -2.941406 63.03125 -4.5 62.71875 -6.4375 C 59.25 -3.675781 55.363281 -1.65625 51.0625 -0.375 C 46.769531 0.894531 42.679688 1.53125 38.796875 1.53125 C 31.441406 1.53125 25.078125 -0.15625 19.703125 -3.53125 C 14.335938 -6.90625 10.222656 -11.65625 7.359375 -17.78125 C 4.492188 -23.914062 3.0625 -31.078125 3.0625 -39.265625 C 3.0625 -47.234375 4.644531 -54.234375 7.8125 -60.265625 C 10.988281 -66.296875 15.410156 -71.023438 21.078125 -74.453125 C 26.753906 -77.878906 33.328125 -79.59375 40.796875 -79.59375 C 44.066406 -79.59375 47.691406 -78.976562 51.671875 -77.75 C 55.660156 -76.519531 59.34375 -74.578125 62.71875 -71.921875 C 63.132812 -73.765625 64.054688 -75.25 65.484375 -76.375 C 66.910156 -77.5 68.851562 -78.0625 71.3125 -78.0625 Z M 40.640625 -13.953125 C 45.140625 -13.953125 49.484375 -14.945312 53.671875 -16.9375 C 57.867188 -18.9375 60.835938 -21.878906 62.578125 -25.765625 L 62.578125 -52.296875 C 60.628906 -56.078125 57.710938 -58.988281 53.828125 -61.03125 C 49.941406 -63.082031 46.003906 -64.109375 42.015625 -64.109375 C 35.578125 -64.109375 30.390625 -61.753906 26.453125 -57.046875 C 22.515625 -52.347656 20.546875 -46.367188 20.546875 -39.109375 C 20.546875 -31.546875 22.382812 -25.460938 26.0625 -20.859375 C 29.75 -16.253906 34.609375 -13.953125 40.640625 -13.953125 Z M 40.640625 -13.953125 "/></g></g><g style="fill:#000000;fill-opacity:1;"><g transform="translate(242.68827, 130.983212)"><path style="stroke:none" d="M 22.84375 -7.671875 C 22.84375 -5.617188 22 -3.828125 20.3125 -2.296875 C 18.632812 -0.765625 16.566406 0 14.109375 0 C 11.554688 0 9.460938 -0.765625 7.828125 -2.296875 C 6.191406 -3.828125 5.375 -5.617188 5.375 -7.671875 L 5.375 -91.5625 C 5.375 -93.601562 6.191406 -95.390625 7.828125 -96.921875 C 9.460938 -98.453125 11.554688 -99.21875 14.109375 -99.21875 C 16.566406 -99.21875 18.632812 -98.453125 20.3125 -96.921875 C 22 -95.390625 22.84375 -93.601562 22.84375 -91.5625 Z M 22.84375 -7.671875 "/></g></g><g clip-rule="nonzero" clip-path="url(#8d705d7fb4)"><path style=" stroke:none;fill-rule:nonzero;fill:#100f0d;fill-opacity:1;" d="M 428.050781 73.320312 L 428.050781 73.074219 C 428.050781 39.339844 400.386719 11.195312 366.578125 11.179688 C 332.652344 11.164062 305.050781 38.699219 305.050781 72.542969 L 305.050781 73.320312 C 291.949219 75.734375 282.023438 87.1875 282.023438 100.960938 C 282.023438 106.464844 283.699219 111.933594 286.746094 116.519531 C 287.769531 118.070312 288.960938 119.523438 290.28125 120.839844 C 294.230469 124.78125 299.335938 127.550781 305.050781 128.601562 C 305.074219 128.609375 305.121094 128.613281 305.171875 128.621094 C 306.804688 128.910156 308.484375 129.074219 310.199219 129.074219 L 312.160156 129.074219 C 314.925781 129.074219 317.167969 126.835938 317.167969 124.078125 L 317.167969 72.542969 C 317.167969 45.375 339.320312 23.269531 366.550781 23.269531 C 393.777344 23.269531 415.929688 45.375 415.929688 72.542969 L 415.929688 124.078125 C 415.929688 126.835938 418.175781 129.074219 420.941406 129.074219 L 422.898438 129.074219 C 424.617188 129.074219 426.292969 128.910156 427.925781 128.621094 C 427.980469 128.613281 428.023438 128.609375 428.050781 128.601562 C 433.765625 127.550781 438.871094 124.78125 442.820312 120.839844 C 443.410156 120.253906 443.972656 119.636719 444.507812 119 C 447.492188 115.425781 449.570312 111.105469 450.507812 106.542969 C 450.882812 104.710938 451.074219 102.835938 451.074219 100.960938 C 451.074219 87.1875 441.152344 75.734375 428.050781 73.320312 "/></g><path style=" stroke:none;fill-rule:nonzero;fill:#100f0d;fill-opacity:1;" d="M 327.257812 92.402344 C 325.441406 92.402344 323.972656 93.871094 323.972656 95.683594 L 323.972656 110.117188 C 323.972656 111.929688 325.441406 113.398438 327.257812 113.398438 C 329.074219 113.398438 330.546875 111.929688 330.546875 110.117188 L 330.546875 95.683594 C 330.546875 93.871094 329.074219 92.402344 327.257812 92.402344 "/><path style=" stroke:none;fill-rule:nonzero;fill:#100f0d;fill-opacity:1;" d="M 340.355469 82.324219 C 338.542969 82.324219 337.066406 83.792969 337.066406 85.605469 L 337.066406 120.195312 C 337.066406 122.003906 338.542969 123.476562 340.355469 123.476562 C 342.167969 123.476562 343.644531 122.003906 343.644531 120.195312 L 343.644531 85.605469 C 343.644531 83.792969 342.167969 82.324219 340.355469 82.324219 "/><path style=" stroke:none;fill-rule:nonzero;fill:#100f0d;fill-opacity:1;" d="M 353.453125 72.8125 C 351.640625 72.8125 350.164062 74.277344 350.164062 76.09375 L 350.164062 129.710938 C 350.164062 131.519531 351.640625 132.992188 353.453125 132.992188 C 355.265625 132.992188 356.742188 131.519531 356.742188 129.710938 L 356.742188 76.09375 C 356.742188 74.277344 355.265625 72.8125 353.453125 72.8125 "/><g clip-rule="nonzero" clip-path="url(#8e2e6340fb)"><path style=" stroke:none;fill-rule:nonzero;fill:#100f0d;fill-opacity:1;" d="M 366.550781 61 C 364.734375 61 363.261719 62.472656 363.261719 64.28125 L 363.261719 141.519531 C 363.261719 143.332031 364.734375 144.800781 366.550781 144.800781 C 368.363281 144.800781 369.839844 143.332031 369.839844 141.519531 L 369.839844 64.28125 C 369.839844 62.472656 368.363281 61 366.550781 61 "/></g><path style=" stroke:none;fill-rule:nonzero;fill:#100f0d;fill-opacity:1;" d="M 379.648438 72.8125 C 377.832031 72.8125 376.359375 74.277344 376.359375 76.09375 L 376.359375 129.710938 C 376.359375 131.519531 377.832031 132.992188 379.648438 132.992188 C 381.460938 132.992188 382.933594 131.519531 382.933594 129.710938 L 382.933594 76.09375 C 382.933594 74.277344 381.460938 72.8125 379.648438 72.8125 "/><path style=" stroke:none;fill-rule:nonzero;fill:#100f0d;fill-opacity:1;" d="M 392.742188 82.324219 C 390.929688 82.324219 389.457031 83.792969 389.457031 85.605469 L 389.457031 120.195312 C 389.457031 122.003906 390.929688 123.476562 392.742188 123.476562 C 394.5625 123.476562 396.03125 122.003906 396.03125 120.195312 L 396.03125 85.605469 C 396.03125 83.792969 394.5625 82.324219 392.742188 82.324219 "/><path style=" stroke:none;fill-rule:nonzero;fill:#100f0d;fill-opacity:1;" d="M 405.839844 92.402344 C 404.027344 92.402344 402.550781 93.871094 402.550781 95.683594 L 402.550781 110.117188 C 402.550781 111.929688 404.027344 113.398438 405.839844 113.398438 C 407.660156 113.398438 409.128906 111.929688 409.128906 110.117188 L 409.128906 95.683594 C 409.128906 93.871094 407.660156 92.402344 405.839844 92.402344 "/><g style="fill:#000000;fill-opacity:1;"><g transform="translate(58.473812, 176.085349)"><path style="stroke:none" d="M 26.109375 -12.09375 L 17.28125 -12.09375 C 17.039062 -9.125 16.25 -6.523438 14.90625 -4.296875 C 13.570312 -2.078125 11.816406 -0.3125 9.640625 1 C 9.316406 1.175781 9.003906 1.265625 8.703125 1.265625 C 8.222656 1.265625 7.816406 1.078125 7.484375 0.703125 C 7.148438 0.335938 6.984375 -0.0664062 6.984375 -0.515625 C 6.984375 -0.773438 7.050781 -1.035156 7.1875 -1.296875 C 7.332031 -1.554688 7.566406 -1.789062 7.890625 -2 C 9.640625 -3.125 11.003906 -4.488281 11.984375 -6.09375 C 12.960938 -7.707031 13.5625 -9.707031 13.78125 -12.09375 L 4.5 -12.09375 C 4.0625 -12.09375 3.734375 -12.257812 3.515625 -12.59375 C 3.304688 -12.9375 3.203125 -13.300781 3.203125 -13.6875 C 3.203125 -14.09375 3.304688 -14.460938 3.515625 -14.796875 C 3.734375 -15.128906 4.0625 -15.296875 4.5 -15.296875 L 26.109375 -15.296875 C 26.554688 -15.296875 26.890625 -15.128906 27.109375 -14.796875 C 27.328125 -14.460938 27.4375 -14.09375 27.4375 -13.6875 C 27.4375 -13.300781 27.328125 -12.9375 27.109375 -12.59375 C 26.890625 -12.257812 26.554688 -12.09375 26.109375 -12.09375 Z M 8.21875 -22.421875 L 22.296875 -22.421875 C 22.742188 -22.421875 23.078125 -22.25 23.296875 -21.90625 C 23.515625 -21.5625 23.625 -21.191406 23.625 -20.796875 C 23.625 -20.390625 23.515625 -20.015625 23.296875 -19.671875 C 23.078125 -19.328125 22.742188 -19.15625 22.296875 -19.15625 L 8.21875 -19.15625 C 7.78125 -19.15625 7.453125 -19.328125 7.234375 -19.671875 C 7.023438 -20.015625 6.921875 -20.390625 6.921875 -20.796875 C 6.921875 -21.191406 7.023438 -21.5625 7.234375 -21.90625 C 7.453125 -22.25 7.78125 -22.421875 8.21875 -22.421875 Z M 8.21875 -22.421875 "/></g></g><g style="fill:#000000;fill-opacity:1;"><g transform="translate(87.537839, 176.085349)"><path style="stroke:none" d="M 14.5625 0.875 L 14.5625 -9.578125 C 13.570312 -8.796875 12.5625 -8.078125 11.53125 -7.421875 C 10.507812 -6.765625 9.492188 -6.175781 8.484375 -5.65625 C 8.222656 -5.507812 7.953125 -5.4375 7.671875 -5.4375 C 7.253906 -5.4375 6.898438 -5.597656 6.609375 -5.921875 C 6.328125 -6.242188 6.1875 -6.597656 6.1875 -6.984375 C 6.1875 -7.242188 6.257812 -7.5 6.40625 -7.75 C 6.550781 -8 6.78125 -8.207031 7.09375 -8.375 C 8.59375 -9.132812 10.082031 -10.046875 11.5625 -11.109375 C 13.039062 -12.179688 14.429688 -13.351562 15.734375 -14.625 C 17.046875 -15.894531 18.175781 -17.195312 19.125 -18.53125 C 19.289062 -18.75 19.476562 -18.90625 19.6875 -19 C 19.894531 -19.101562 20.101562 -19.15625 20.3125 -19.15625 C 20.707031 -19.15625 21.082031 -19.003906 21.4375 -18.703125 C 21.789062 -18.398438 21.96875 -18.039062 21.96875 -17.625 C 21.96875 -17.320312 21.867188 -17.023438 21.671875 -16.734375 C 20.984375 -15.796875 20.207031 -14.863281 19.34375 -13.9375 C 18.476562 -13.007812 17.5625 -12.109375 16.59375 -11.234375 C 16.875 -11.179688 17.125 -11.046875 17.34375 -10.828125 C 17.5625 -10.617188 17.671875 -10.34375 17.671875 -10 L 17.671875 0.875 C 17.671875 1.320312 17.507812 1.648438 17.1875 1.859375 C 16.875 2.066406 16.523438 2.171875 16.140625 2.171875 C 15.753906 2.171875 15.394531 2.066406 15.0625 1.859375 C 14.726562 1.648438 14.5625 1.320312 14.5625 0.875 Z M 14.5625 0.875 "/></g></g><g style="fill:#000000;fill-opacity:1;"><g transform="translate(116.601865, 176.085349)"><path style="stroke:none" d="M 4.078125 -13.046875 L 26.140625 -13.046875 C 26.679688 -13.046875 27.085938 -12.867188 27.359375 -12.515625 C 27.628906 -12.171875 27.765625 -11.773438 27.765625 -11.328125 C 27.765625 -10.910156 27.628906 -10.519531 27.359375 -10.15625 C 27.085938 -9.789062 26.679688 -9.609375 26.140625 -9.609375 L 4.078125 -9.609375 C 3.535156 -9.609375 3.128906 -9.789062 2.859375 -10.15625 C 2.585938 -10.519531 2.453125 -10.910156 2.453125 -11.328125 C 2.453125 -11.773438 2.585938 -12.171875 2.859375 -12.515625 C 3.128906 -12.867188 3.535156 -13.046875 4.078125 -13.046875 Z M 4.078125 -13.046875 "/></g></g><g style="fill:#000000;fill-opacity:1;"><g transform="translate(145.665892, 176.085349)"><path style="stroke:none" d="M 7.890625 -17.40625 L 7.890625 -20.703125 C 7.890625 -21.222656 8.078125 -21.613281 8.453125 -21.875 C 8.835938 -22.132812 9.253906 -22.265625 9.703125 -22.265625 C 10.140625 -22.265625 10.539062 -22.132812 10.90625 -21.875 C 11.269531 -21.613281 11.453125 -21.222656 11.453125 -20.703125 L 11.453125 -17.28125 C 11.453125 -14.5 11.210938 -12.066406 10.734375 -9.984375 C 10.265625 -7.898438 9.5625 -6.082031 8.625 -4.53125 C 7.6875 -2.976562 6.523438 -1.609375 5.140625 -0.421875 C 4.710938 -0.0546875 4.257812 0.125 3.78125 0.125 C 3.289062 0.125 2.867188 -0.0507812 2.515625 -0.40625 C 2.171875 -0.757812 2 -1.164062 2 -1.625 C 2 -1.875 2.050781 -2.125 2.15625 -2.375 C 2.269531 -2.625 2.457031 -2.859375 2.71875 -3.078125 C 3.925781 -4.171875 4.90625 -5.347656 5.65625 -6.609375 C 6.414062 -7.878906 6.976562 -9.378906 7.34375 -11.109375 C 7.707031 -12.847656 7.890625 -14.945312 7.890625 -17.40625 Z M 19.15625 -21.453125 L 19.15625 -4.8125 C 19.15625 -4.34375 19.296875 -4.109375 19.578125 -4.109375 C 19.703125 -4.109375 19.90625 -4.179688 20.1875 -4.328125 C 21.132812 -4.847656 22.128906 -5.5625 23.171875 -6.46875 C 24.222656 -7.375 25.125 -8.359375 25.875 -9.421875 C 26.09375 -9.703125 26.328125 -9.910156 26.578125 -10.046875 C 26.828125 -10.179688 27.082031 -10.25 27.34375 -10.25 C 27.8125 -10.25 28.222656 -10.09375 28.578125 -9.78125 C 28.941406 -9.46875 29.125 -9.078125 29.125 -8.609375 C 29.125 -8.265625 29.003906 -7.914062 28.765625 -7.5625 C 27.835938 -6.207031 26.734375 -4.953125 25.453125 -3.796875 C 24.179688 -2.648438 22.816406 -1.695312 21.359375 -0.9375 C 20.429688 -0.457031 19.566406 -0.21875 18.765625 -0.21875 C 17.835938 -0.21875 17.078125 -0.523438 16.484375 -1.140625 C 15.890625 -1.765625 15.59375 -2.632812 15.59375 -3.75 L 15.59375 -21.453125 C 15.59375 -21.972656 15.78125 -22.359375 16.15625 -22.609375 C 16.53125 -22.867188 16.9375 -23 17.375 -23 C 17.84375 -23 18.253906 -22.867188 18.609375 -22.609375 C 18.972656 -22.359375 19.15625 -21.972656 19.15625 -21.453125 Z M 19.15625 -21.453125 "/></g></g><g style="fill:#000000;fill-opacity:1;"><g transform="translate(174.729919, 176.085349)"><path style="stroke:none" d="M 11.546875 -15.046875 C 12.242188 -14.847656 13.023438 -14.585938 13.890625 -14.265625 C 14.765625 -13.941406 15.644531 -13.585938 16.53125 -13.203125 C 17.414062 -12.816406 18.238281 -12.4375 19 -12.0625 C 19.382812 -11.851562 19.660156 -11.609375 19.828125 -11.328125 C 20.003906 -11.046875 20.09375 -10.753906 20.09375 -10.453125 C 20.09375 -10.015625 19.929688 -9.613281 19.609375 -9.25 C 19.285156 -8.882812 18.863281 -8.703125 18.34375 -8.703125 C 18.039062 -8.703125 17.707031 -8.789062 17.34375 -8.96875 C 16.238281 -9.550781 15.054688 -10.101562 13.796875 -10.625 C 12.535156 -11.15625 11.367188 -11.59375 10.296875 -11.9375 C 9.921875 -12.0625 9.640625 -12.265625 9.453125 -12.546875 C 9.273438 -12.828125 9.1875 -13.117188 9.1875 -13.421875 C 9.1875 -13.859375 9.335938 -14.253906 9.640625 -14.609375 C 9.941406 -14.960938 10.351562 -15.140625 10.875 -15.140625 C 11.082031 -15.140625 11.304688 -15.109375 11.546875 -15.046875 Z M 11.640625 -23.484375 C 12.617188 -23.242188 13.679688 -22.929688 14.828125 -22.546875 C 15.984375 -22.160156 17.117188 -21.75 18.234375 -21.3125 C 19.359375 -20.882812 20.363281 -20.445312 21.25 -20 C 21.664062 -19.800781 21.96875 -19.539062 22.15625 -19.21875 C 22.351562 -18.894531 22.453125 -18.5625 22.453125 -18.21875 C 22.453125 -17.78125 22.304688 -17.378906 22.015625 -17.015625 C 21.722656 -16.648438 21.328125 -16.46875 20.828125 -16.46875 C 20.535156 -16.46875 20.25 -16.539062 19.96875 -16.6875 C 19.039062 -17.101562 18.035156 -17.53125 16.953125 -17.96875 C 15.878906 -18.414062 14.800781 -18.835938 13.71875 -19.234375 C 12.632812 -19.628906 11.597656 -19.957031 10.609375 -20.21875 C 10.179688 -20.332031 9.867188 -20.535156 9.671875 -20.828125 C 9.484375 -21.128906 9.390625 -21.4375 9.390625 -21.75 C 9.390625 -22.195312 9.546875 -22.609375 9.859375 -22.984375 C 10.171875 -23.359375 10.601562 -23.546875 11.15625 -23.546875 C 11.226562 -23.546875 11.304688 -23.539062 11.390625 -23.53125 C 11.472656 -23.519531 11.554688 -23.503906 11.640625 -23.484375 Z M 8.859375 -6.828125 C 10.066406 -6.523438 11.347656 -6.132812 12.703125 -5.65625 C 14.066406 -5.1875 15.429688 -4.671875 16.796875 -4.109375 C 18.171875 -3.546875 19.460938 -2.941406 20.671875 -2.296875 C 21.085938 -2.097656 21.382812 -1.835938 21.5625 -1.515625 C 21.75 -1.191406 21.84375 -0.859375 21.84375 -0.515625 C 21.84375 -0.0664062 21.6875 0.328125 21.375 0.671875 C 21.0625 1.023438 20.65625 1.203125 20.15625 1.203125 C 20.007812 1.203125 19.851562 1.179688 19.6875 1.140625 C 19.519531 1.109375 19.34375 1.050781 19.15625 0.96875 C 18.03125 0.382812 16.804688 -0.179688 15.484375 -0.734375 C 14.171875 -1.296875 12.851562 -1.816406 11.53125 -2.296875 C 10.207031 -2.773438 8.960938 -3.195312 7.796875 -3.5625 C 7.347656 -3.707031 7.023438 -3.929688 6.828125 -4.234375 C 6.628906 -4.535156 6.53125 -4.847656 6.53125 -5.171875 C 6.53125 -5.609375 6.6875 -6.007812 7 -6.375 C 7.3125 -6.738281 7.726562 -6.921875 8.25 -6.921875 C 8.445312 -6.921875 8.648438 -6.890625 8.859375 -6.828125 Z M 8.859375 -6.828125 "/></g></g><g style="fill:#000000;fill-opacity:1;"><g transform="translate(203.793945, 176.085349)"><path style="stroke:none" d="M 20.96875 -3.265625 L 24.390625 -3.265625 C 24.847656 -3.265625 25.191406 -3.113281 25.421875 -2.8125 C 25.660156 -2.507812 25.78125 -2.164062 25.78125 -1.78125 C 25.78125 -1.414062 25.660156 -1.078125 25.421875 -0.765625 C 25.191406 -0.453125 24.847656 -0.296875 24.390625 -0.296875 L 5.796875 -0.296875 C 5.359375 -0.296875 5.015625 -0.453125 4.765625 -0.765625 C 4.523438 -1.078125 4.40625 -1.414062 4.40625 -1.78125 C 4.40625 -2.164062 4.523438 -2.507812 4.765625 -2.8125 C 5.015625 -3.113281 5.359375 -3.265625 5.796875 -3.265625 L 17.890625 -3.265625 L 18.28125 -11.640625 C 18.300781 -12.078125 18.234375 -12.375 18.078125 -12.53125 C 17.929688 -12.695312 17.597656 -12.78125 17.078125 -12.78125 L 8.515625 -12.78125 C 8.078125 -12.78125 7.734375 -12.9375 7.484375 -13.25 C 7.242188 -13.5625 7.125 -13.898438 7.125 -14.265625 C 7.125 -14.648438 7.242188 -14.992188 7.484375 -15.296875 C 7.734375 -15.597656 8.078125 -15.75 8.515625 -15.75 L 17.53125 -15.75 C 18.9375 -15.75 19.941406 -15.445312 20.546875 -14.84375 C 21.148438 -14.238281 21.421875 -13.289062 21.359375 -12 Z M 20.96875 -3.265625 "/></g></g><g style="fill:#000000;fill-opacity:1;"><g transform="translate(232.857972, 176.085349)"><path style="stroke:none" d="M 4.078125 -13.046875 L 26.140625 -13.046875 C 26.679688 -13.046875 27.085938 -12.867188 27.359375 -12.515625 C 27.628906 -12.171875 27.765625 -11.773438 27.765625 -11.328125 C 27.765625 -10.910156 27.628906 -10.519531 27.359375 -10.15625 C 27.085938 -9.789062 26.679688 -9.609375 26.140625 -9.609375 L 4.078125 -9.609375 C 3.535156 -9.609375 3.128906 -9.789062 2.859375 -10.15625 C 2.585938 -10.519531 2.453125 -10.910156 2.453125 -11.328125 C 2.453125 -11.773438 2.585938 -12.171875 2.859375 -12.515625 C 3.128906 -12.867188 3.535156 -13.046875 4.078125 -13.046875 Z M 4.078125 -13.046875 "/></g></g><g style="fill:#000000;fill-opacity:1;"><g transform="translate(261.921999, 176.085349)"><path style="stroke:none" d="M 6.625 -15.828125 C 7.320312 -15.492188 8.03125 -15.09375 8.75 -14.625 C 9.46875 -14.164062 10.117188 -13.671875 10.703125 -13.140625 C 10.921875 -12.941406 11.078125 -12.722656 11.171875 -12.484375 C 11.273438 -12.253906 11.328125 -12.03125 11.328125 -11.8125 C 11.328125 -11.351562 11.148438 -10.929688 10.796875 -10.546875 C 10.453125 -10.160156 10.035156 -9.96875 9.546875 -9.96875 C 9.140625 -9.96875 8.769531 -10.109375 8.4375 -10.390625 C 7.90625 -10.816406 7.28125 -11.273438 6.5625 -11.765625 C 5.851562 -12.265625 5.238281 -12.664062 4.71875 -12.96875 C 4.414062 -13.125 4.195312 -13.320312 4.0625 -13.5625 C 3.9375 -13.8125 3.875 -14.054688 3.875 -14.296875 C 3.875 -14.734375 4.046875 -15.132812 4.390625 -15.5 C 4.742188 -15.863281 5.1875 -16.046875 5.71875 -16.046875 C 6.03125 -16.046875 6.332031 -15.972656 6.625 -15.828125 Z M 10.25 -22.671875 C 10.925781 -22.328125 11.625 -21.921875 12.34375 -21.453125 C 13.0625 -20.992188 13.710938 -20.5 14.296875 -19.96875 C 14.515625 -19.769531 14.671875 -19.554688 14.765625 -19.328125 C 14.867188 -19.097656 14.921875 -18.867188 14.921875 -18.640625 C 14.921875 -18.179688 14.742188 -17.765625 14.390625 -17.390625 C 14.046875 -17.015625 13.628906 -16.828125 13.140625 -16.828125 C 12.742188 -16.828125 12.375 -16.96875 12.03125 -17.25 C 11.5 -17.675781 10.875 -18.128906 10.15625 -18.609375 C 9.445312 -19.097656 8.832031 -19.492188 8.3125 -19.796875 C 8.007812 -19.953125 7.789062 -20.144531 7.65625 -20.375 C 7.53125 -20.613281 7.46875 -20.863281 7.46875 -21.125 C 7.46875 -21.5625 7.644531 -21.96875 8 -22.34375 C 8.363281 -22.71875 8.8125 -22.90625 9.34375 -22.90625 C 9.625 -22.90625 9.925781 -22.828125 10.25 -22.671875 Z M 20.84375 -21.09375 C 20.644531 -21.3125 20.546875 -21.539062 20.546875 -21.78125 C 20.546875 -22.082031 20.675781 -22.347656 20.9375 -22.578125 C 21.195312 -22.816406 21.488281 -22.9375 21.8125 -22.9375 C 22.132812 -22.9375 22.421875 -22.828125 22.671875 -22.609375 C 23.066406 -22.242188 23.472656 -21.828125 23.890625 -21.359375 C 24.316406 -20.898438 24.691406 -20.4375 25.015625 -19.96875 C 25.117188 -19.832031 25.191406 -19.695312 25.234375 -19.5625 C 25.273438 -19.4375 25.296875 -19.300781 25.296875 -19.15625 C 25.296875 -18.832031 25.171875 -18.550781 24.921875 -18.3125 C 24.679688 -18.070312 24.398438 -17.953125 24.078125 -17.953125 C 23.679688 -17.953125 23.351562 -18.144531 23.09375 -18.53125 C 22.726562 -19.03125 22.347656 -19.492188 21.953125 -19.921875 C 21.554688 -20.359375 21.1875 -20.75 20.84375 -21.09375 Z M 23.546875 -15.34375 C 23.742188 -15.6875 23.984375 -15.925781 24.265625 -16.0625 C 24.546875 -16.207031 24.835938 -16.28125 25.140625 -16.28125 C 25.609375 -16.28125 26.023438 -16.128906 26.390625 -15.828125 C 26.765625 -15.523438 26.953125 -15.132812 26.953125 -14.65625 C 26.953125 -14.351562 26.863281 -14.03125 26.6875 -13.6875 C 25.351562 -11.207031 23.671875 -8.988281 21.640625 -7.03125 C 19.617188 -5.082031 17.390625 -3.425781 14.953125 -2.0625 C 12.515625 -0.707031 9.976562 0.34375 7.34375 1.09375 C 7.144531 1.144531 6.929688 1.171875 6.703125 1.171875 C 6.179688 1.171875 5.769531 0.992188 5.46875 0.640625 C 5.164062 0.296875 5.015625 -0.0976562 5.015625 -0.546875 C 5.015625 -0.890625 5.125 -1.226562 5.34375 -1.5625 C 5.570312 -1.894531 5.925781 -2.128906 6.40625 -2.265625 C 10.132812 -3.390625 13.445312 -5.015625 16.34375 -7.140625 C 19.25 -9.265625 21.648438 -12 23.546875 -15.34375 Z M 23.875 -23.484375 C 23.65625 -23.703125 23.546875 -23.941406 23.546875 -24.203125 C 23.546875 -24.503906 23.671875 -24.765625 23.921875 -24.984375 C 24.171875 -25.210938 24.46875 -25.328125 24.8125 -25.328125 C 25.113281 -25.328125 25.414062 -25.203125 25.71875 -24.953125 C 26.125 -24.640625 26.53125 -24.257812 26.9375 -23.8125 C 27.351562 -23.363281 27.722656 -22.921875 28.046875 -22.484375 C 28.265625 -22.203125 28.375 -21.898438 28.375 -21.578125 C 28.375 -21.253906 28.253906 -20.976562 28.015625 -20.75 C 27.773438 -20.53125 27.492188 -20.421875 27.171875 -20.421875 C 26.984375 -20.421875 26.796875 -20.460938 26.609375 -20.546875 C 26.429688 -20.628906 26.265625 -20.769531 26.109375 -20.96875 C 25.765625 -21.414062 25.390625 -21.851562 24.984375 -22.28125 C 24.585938 -22.71875 24.21875 -23.117188 23.875 -23.484375 Z M 23.875 -23.484375 "/></g></g><g style="fill:#000000;fill-opacity:1;"><g transform="translate(290.986025, 176.085349)"><path style="stroke:none" d="M 8.640625 -15.921875 C 9.046875 -15.296875 9.429688 -14.625 9.796875 -13.90625 C 10.171875 -13.195312 10.492188 -12.488281 10.765625 -11.78125 C 10.816406 -11.601562 10.84375 -11.421875 10.84375 -11.234375 C 10.84375 -10.796875 10.660156 -10.441406 10.296875 -10.171875 C 9.941406 -9.898438 9.550781 -9.765625 9.125 -9.765625 C 8.84375 -9.765625 8.578125 -9.835938 8.328125 -9.984375 C 8.078125 -10.140625 7.878906 -10.378906 7.734375 -10.703125 C 7.472656 -11.359375 7.171875 -12.03125 6.828125 -12.71875 C 6.484375 -13.40625 6.140625 -14.03125 5.796875 -14.59375 C 5.660156 -14.8125 5.59375 -15.054688 5.59375 -15.328125 C 5.59375 -15.722656 5.765625 -16.050781 6.109375 -16.3125 C 6.453125 -16.582031 6.832031 -16.71875 7.25 -16.71875 C 7.507812 -16.71875 7.765625 -16.65625 8.015625 -16.53125 C 8.273438 -16.40625 8.484375 -16.203125 8.640625 -15.921875 Z M 14.625 -17.34375 C 15.007812 -16.71875 15.375 -16.050781 15.71875 -15.34375 C 16.0625 -14.644531 16.34375 -13.941406 16.5625 -13.234375 C 16.625 -13.054688 16.65625 -12.882812 16.65625 -12.71875 C 16.65625 -12.28125 16.476562 -11.925781 16.125 -11.65625 C 15.769531 -11.394531 15.390625 -11.265625 14.984375 -11.265625 C 14.703125 -11.265625 14.429688 -11.34375 14.171875 -11.5 C 13.910156 -11.664062 13.71875 -11.921875 13.59375 -12.265625 C 13.09375 -13.617188 12.488281 -14.898438 11.78125 -16.109375 C 11.644531 -16.328125 11.578125 -16.554688 11.578125 -16.796875 C 11.578125 -17.203125 11.742188 -17.523438 12.078125 -17.765625 C 12.410156 -18.003906 12.785156 -18.125 13.203125 -18.125 C 13.484375 -18.125 13.75 -18.0625 14 -17.9375 C 14.257812 -17.820312 14.46875 -17.625 14.625 -17.34375 Z M 21.515625 -16.140625 C 21.617188 -16.523438 21.8125 -16.796875 22.09375 -16.953125 C 22.375 -17.109375 22.675781 -17.1875 23 -17.1875 C 23.414062 -17.1875 23.8125 -17.0625 24.1875 -16.8125 C 24.5625 -16.5625 24.75 -16.207031 24.75 -15.75 C 24.75 -15.6875 24.742188 -15.625 24.734375 -15.5625 C 24.722656 -15.5 24.707031 -15.425781 24.6875 -15.34375 C 24.0625 -12.96875 23.132812 -10.710938 21.90625 -8.578125 C 20.675781 -6.441406 19.226562 -4.523438 17.5625 -2.828125 C 15.90625 -1.140625 14.109375 0.222656 12.171875 1.265625 C 11.847656 1.429688 11.566406 1.515625 11.328125 1.515625 C 10.890625 1.515625 10.523438 1.347656 10.234375 1.015625 C 9.941406 0.679688 9.796875 0.3125 9.796875 -0.09375 C 9.796875 -0.375 9.867188 -0.640625 10.015625 -0.890625 C 10.171875 -1.140625 10.410156 -1.359375 10.734375 -1.546875 C 13.429688 -3.078125 15.675781 -5.070312 17.46875 -7.53125 C 19.257812 -9.988281 20.609375 -12.859375 21.515625 -16.140625 Z M 21.515625 -16.140625 "/></g></g><g style="fill:#000000;fill-opacity:1;"><g transform="translate(320.050052, 176.085349)"><path style="stroke:none" d="M 14.78125 -19.734375 L 20.421875 -19.796875 C 21.671875 -19.816406 22.613281 -19.582031 23.25 -19.09375 C 23.882812 -18.613281 24.203125 -17.921875 24.203125 -17.015625 C 24.203125 -16.523438 24.113281 -15.988281 23.9375 -15.40625 C 23.25 -13.070312 22.234375 -10.832031 20.890625 -8.6875 C 19.554688 -6.539062 17.972656 -4.582031 16.140625 -2.8125 C 14.304688 -1.039062 12.289062 0.457031 10.09375 1.6875 C 9.726562 1.875 9.394531 1.96875 9.09375 1.96875 C 8.59375 1.96875 8.179688 1.789062 7.859375 1.4375 C 7.535156 1.082031 7.375 0.679688 7.375 0.234375 C 7.375 -0.046875 7.457031 -0.335938 7.625 -0.640625 C 7.800781 -0.941406 8.070312 -1.191406 8.4375 -1.390625 C 11.4375 -3.160156 13.929688 -5.28125 15.921875 -7.75 C 17.921875 -10.21875 19.382812 -12.882812 20.3125 -15.75 C 20.363281 -15.90625 20.390625 -16.046875 20.390625 -16.171875 C 20.390625 -16.492188 20.117188 -16.65625 19.578125 -16.65625 L 12.8125 -16.59375 C 12.0625 -15.5 11.269531 -14.457031 10.4375 -13.46875 C 9.601562 -12.488281 8.753906 -11.613281 7.890625 -10.84375 C 7.671875 -10.644531 7.4375 -10.5 7.1875 -10.40625 C 6.945312 -10.320312 6.71875 -10.28125 6.5 -10.28125 C 6.050781 -10.28125 5.65625 -10.4375 5.3125 -10.75 C 4.976562 -11.0625 4.8125 -11.4375 4.8125 -11.875 C 4.8125 -12.351562 5.0625 -12.835938 5.5625 -13.328125 C 6.53125 -14.191406 7.46875 -15.195312 8.375 -16.34375 C 9.28125 -17.5 10.117188 -18.707031 10.890625 -19.96875 C 11.671875 -21.238281 12.320312 -22.488281 12.84375 -23.71875 C 13 -24.125 13.234375 -24.414062 13.546875 -24.59375 C 13.859375 -24.78125 14.175781 -24.875 14.5 -24.875 C 14.96875 -24.875 15.378906 -24.726562 15.734375 -24.4375 C 16.097656 -24.144531 16.28125 -23.753906 16.28125 -23.265625 C 16.28125 -23.066406 16.234375 -22.835938 16.140625 -22.578125 C 15.929688 -22.109375 15.71875 -21.632812 15.5 -21.15625 C 15.28125 -20.6875 15.039062 -20.210938 14.78125 -19.734375 Z M 14.78125 -19.734375 "/></g></g><g style="fill:#000000;fill-opacity:1;"><g transform="translate(349.114079, 176.085349)"><path style="stroke:none" d="M 7.09375 -21.328125 L 19.125 -21.546875 C 20.3125 -21.585938 21.203125 -21.367188 21.796875 -20.890625 C 22.390625 -20.421875 22.6875 -19.773438 22.6875 -18.953125 C 22.6875 -18.484375 22.578125 -17.9375 22.359375 -17.3125 C 21.898438 -16.0625 21.316406 -14.828125 20.609375 -13.609375 C 19.898438 -12.390625 19.101562 -11.21875 18.21875 -10.09375 C 19.164062 -9.46875 20.125 -8.75 21.09375 -7.9375 C 22.0625 -7.132812 23 -6.304688 23.90625 -5.453125 C 24.8125 -4.597656 25.617188 -3.757812 26.328125 -2.9375 C 26.703125 -2.488281 26.890625 -2.035156 26.890625 -1.578125 C 26.890625 -1.066406 26.691406 -0.632812 26.296875 -0.28125 C 25.910156 0.0625 25.460938 0.234375 24.953125 0.234375 C 24.710938 0.234375 24.46875 0.175781 24.21875 0.0625 C 23.96875 -0.0390625 23.734375 -0.222656 23.515625 -0.484375 C 22.585938 -1.609375 21.460938 -2.8125 20.140625 -4.09375 C 18.816406 -5.375 17.460938 -6.535156 16.078125 -7.578125 C 14.609375 -5.992188 13.023438 -4.5625 11.328125 -3.28125 C 9.640625 -2 7.9375 -0.9375 6.21875 -0.09375 C 5.9375 0.0507812 5.644531 0.125 5.34375 0.125 C 4.84375 0.125 4.425781 -0.0546875 4.09375 -0.421875 C 3.757812 -0.785156 3.59375 -1.1875 3.59375 -1.625 C 3.59375 -1.925781 3.671875 -2.210938 3.828125 -2.484375 C 3.992188 -2.765625 4.257812 -2.992188 4.625 -3.171875 C 6.71875 -4.242188 8.675781 -5.503906 10.5 -6.953125 C 12.320312 -8.398438 13.925781 -10.003906 15.3125 -11.765625 C 16.707031 -13.535156 17.796875 -15.394531 18.578125 -17.34375 C 18.660156 -17.507812 18.703125 -17.671875 18.703125 -17.828125 C 18.703125 -18.085938 18.453125 -18.21875 17.953125 -18.21875 L 7.125 -18.015625 C 6.625 -18.015625 6.25 -18.179688 6 -18.515625 C 5.75 -18.859375 5.625 -19.234375 5.625 -19.640625 C 5.625 -20.066406 5.75 -20.453125 6 -20.796875 C 6.25 -21.148438 6.613281 -21.328125 7.09375 -21.328125 Z M 7.09375 -21.328125 "/></g></g><g style="fill:#000000;fill-opacity:1;"><g transform="translate(378.178105, 176.085349)"><path style="stroke:none" d="M 14.78125 -19.734375 L 20.421875 -19.796875 C 21.671875 -19.816406 22.613281 -19.582031 23.25 -19.09375 C 23.882812 -18.613281 24.203125 -17.921875 24.203125 -17.015625 C 24.203125 -16.523438 24.113281 -15.988281 23.9375 -15.40625 C 23.25 -13.070312 22.234375 -10.832031 20.890625 -8.6875 C 19.554688 -6.539062 17.972656 -4.582031 16.140625 -2.8125 C 14.304688 -1.039062 12.289062 0.457031 10.09375 1.6875 C 9.726562 1.875 9.394531 1.96875 9.09375 1.96875 C 8.59375 1.96875 8.179688 1.789062 7.859375 1.4375 C 7.535156 1.082031 7.375 0.679688 7.375 0.234375 C 7.375 -0.046875 7.457031 -0.335938 7.625 -0.640625 C 7.800781 -0.941406 8.070312 -1.191406 8.4375 -1.390625 C 11.4375 -3.160156 13.929688 -5.28125 15.921875 -7.75 C 17.921875 -10.21875 19.382812 -12.882812 20.3125 -15.75 C 20.363281 -15.90625 20.390625 -16.046875 20.390625 -16.171875 C 20.390625 -16.492188 20.117188 -16.65625 19.578125 -16.65625 L 12.8125 -16.59375 C 12.0625 -15.5 11.269531 -14.457031 10.4375 -13.46875 C 9.601562 -12.488281 8.753906 -11.613281 7.890625 -10.84375 C 7.671875 -10.644531 7.4375 -10.5 7.1875 -10.40625 C 6.945312 -10.320312 6.71875 -10.28125 6.5 -10.28125 C 6.050781 -10.28125 5.65625 -10.4375 5.3125 -10.75 C 4.976562 -11.0625 4.8125 -11.4375 4.8125 -11.875 C 4.8125 -12.351562 5.0625 -12.835938 5.5625 -13.328125 C 6.53125 -14.191406 7.46875 -15.195312 8.375 -16.34375 C 9.28125 -17.5 10.117188 -18.707031 10.890625 -19.96875 C 11.671875 -21.238281 12.320312 -22.488281 12.84375 -23.71875 C 13 -24.125 13.234375 -24.414062 13.546875 -24.59375 C 13.859375 -24.78125 14.175781 -24.875 14.5 -24.875 C 14.96875 -24.875 15.378906 -24.726562 15.734375 -24.4375 C 16.097656 -24.144531 16.28125 -23.753906 16.28125 -23.265625 C 16.28125 -23.066406 16.234375 -22.835938 16.140625 -22.578125 C 15.929688 -22.109375 15.71875 -21.632812 15.5 -21.15625 C 15.28125 -20.6875 15.039062 -20.210938 14.78125 -19.734375 Z M 14.78125 -19.734375 "/></g></g><g style="fill:#000000;fill-opacity:1;"><g transform="translate(407.242132, 176.085349)"><path style="stroke:none" d="M 4.078125 -13.046875 L 26.140625 -13.046875 C 26.679688 -13.046875 27.085938 -12.867188 27.359375 -12.515625 C 27.628906 -12.171875 27.765625 -11.773438 27.765625 -11.328125 C 27.765625 -10.910156 27.628906 -10.519531 27.359375 -10.15625 C 27.085938 -9.789062 26.679688 -9.609375 26.140625 -9.609375 L 4.078125 -9.609375 C 3.535156 -9.609375 3.128906 -9.789062 2.859375 -10.15625 C 2.585938 -10.519531 2.453125 -10.910156 2.453125 -11.328125 C 2.453125 -11.773438 2.585938 -12.171875 2.859375 -12.515625 C 3.128906 -12.867188 3.535156 -13.046875 4.078125 -13.046875 Z M 4.078125 -13.046875 "/></g></g><g style="fill:#000000;fill-opacity:1;"><g transform="translate(436.306159, 176.085349)"><path style="stroke:none" d="M 7.890625 -17.40625 L 7.890625 -20.703125 C 7.890625 -21.222656 8.078125 -21.613281 8.453125 -21.875 C 8.835938 -22.132812 9.253906 -22.265625 9.703125 -22.265625 C 10.140625 -22.265625 10.539062 -22.132812 10.90625 -21.875 C 11.269531 -21.613281 11.453125 -21.222656 11.453125 -20.703125 L 11.453125 -17.28125 C 11.453125 -14.5 11.210938 -12.066406 10.734375 -9.984375 C 10.265625 -7.898438 9.5625 -6.082031 8.625 -4.53125 C 7.6875 -2.976562 6.523438 -1.609375 5.140625 -0.421875 C 4.710938 -0.0546875 4.257812 0.125 3.78125 0.125 C 3.289062 0.125 2.867188 -0.0507812 2.515625 -0.40625 C 2.171875 -0.757812 2 -1.164062 2 -1.625 C 2 -1.875 2.050781 -2.125 2.15625 -2.375 C 2.269531 -2.625 2.457031 -2.859375 2.71875 -3.078125 C 3.925781 -4.171875 4.90625 -5.347656 5.65625 -6.609375 C 6.414062 -7.878906 6.976562 -9.378906 7.34375 -11.109375 C 7.707031 -12.847656 7.890625 -14.945312 7.890625 -17.40625 Z M 19.15625 -21.453125 L 19.15625 -4.8125 C 19.15625 -4.34375 19.296875 -4.109375 19.578125 -4.109375 C 19.703125 -4.109375 19.90625 -4.179688 20.1875 -4.328125 C 21.132812 -4.847656 22.128906 -5.5625 23.171875 -6.46875 C 24.222656 -7.375 25.125 -8.359375 25.875 -9.421875 C 26.09375 -9.703125 26.328125 -9.910156 26.578125 -10.046875 C 26.828125 -10.179688 27.082031 -10.25 27.34375 -10.25 C 27.8125 -10.25 28.222656 -10.09375 28.578125 -9.78125 C 28.941406 -9.46875 29.125 -9.078125 29.125 -8.609375 C 29.125 -8.265625 29.003906 -7.914062 28.765625 -7.5625 C 27.835938 -6.207031 26.734375 -4.953125 25.453125 -3.796875 C 24.179688 -2.648438 22.816406 -1.695312 21.359375 -0.9375 C 20.429688 -0.457031 19.566406 -0.21875 18.765625 -0.21875 C 17.835938 -0.21875 17.078125 -0.523438 16.484375 -1.140625 C 15.890625 -1.765625 15.59375 -2.632812 15.59375 -3.75 L 15.59375 -21.453125 C 15.59375 -21.972656 15.78125 -22.359375 16.15625 -22.609375 C 16.53125 -22.867188 16.9375 -23 17.375 -23 C 17.84375 -23 18.253906 -22.867188 18.609375 -22.609375 C 18.972656 -22.359375 19.15625 -21.972656 19.15625 -21.453125 Z M 19.15625 -21.453125 "/></g></g></g></svg>